<?xml version="1.0" encoding="UTF-8"?>
<svg xmlns="http://www.w3.org/2000/svg" xmlns:xlink="http://www.w3.org/1999/xlink" width="300pt" height="217.499994pt" viewBox="0 0 300 217.499994" version="1.2">
<defs>
<clipPath id="clip1">
  <path d="M 0.34375 0 L 145 0 L 145 142 L 0.34375 142 Z M 0.34375 0 "/>
</clipPath>
<clipPath id="clip2">
  <path d="M 72 171 L 299.65625 171 L 299.65625 217 L 72 217 Z M 72 171 "/>
</clipPath>
</defs>
<g id="surface1">
<path style=" stroke:none;fill-rule:nonzero;fill:rgb(27.449036%,74.508667%,78.42865%);fill-opacity:1;" d="M 110.429688 57.957031 C 89.527344 37.054688 55.644531 37.054688 34.746094 57.957031 C 13.847656 78.855469 13.847656 112.738281 34.746094 133.636719 L 72.585938 171.480469 L 110.429688 133.636719 C 131.335938 112.746094 131.328125 78.855469 110.429688 57.957031 Z M 110.429688 57.957031 "/>
<path style=" stroke:none;fill-rule:nonzero;fill:rgb(100%,100%,100%);fill-opacity:1;" d="M 135.550781 20.199219 L 135.550781 119.488281 C 135.550781 126.851562 129.597656 132.804688 122.234375 132.804688 L 22.945312 132.804688 C 15.582031 132.804688 9.628906 126.851562 9.628906 119.488281 L 9.628906 20.199219 C 9.628906 12.835938 15.582031 6.882812 22.945312 6.882812 L 122.234375 6.882812 C 129.597656 6.882812 135.550781 12.835938 135.550781 20.199219 Z M 135.550781 20.199219 "/>
<path style=" stroke:none;fill-rule:nonzero;fill:rgb(27.449036%,74.508667%,78.42865%);fill-opacity:1;" d="M 21.191406 117.789062 C 20.734375 117.789062 20.292969 117.878906 19.871094 118.050781 C 19.449219 118.226562 19.074219 118.476562 18.75 118.800781 C 18.425781 119.125 18.179688 119.496094 18.003906 119.921875 C 17.828125 120.34375 17.738281 120.785156 17.738281 121.242188 C 17.738281 121.699219 17.828125 122.140625 18.003906 122.5625 C 18.179688 122.984375 18.425781 123.359375 18.75 123.683594 C 19.074219 124.003906 19.449219 124.253906 19.871094 124.429688 C 20.292969 124.605469 20.734375 124.691406 21.191406 124.691406 C 21.648438 124.691406 22.089844 124.605469 22.511719 124.429688 C 22.933594 124.253906 23.308594 124.003906 23.632812 123.683594 C 23.957031 123.359375 24.207031 122.984375 24.378906 122.5625 C 24.554688 122.140625 24.644531 121.699219 24.644531 121.242188 C 24.644531 120.785156 24.554688 120.34375 24.378906 119.921875 C 24.207031 119.496094 23.957031 119.125 23.632812 118.800781 C 23.308594 118.476562 22.933594 118.226562 22.511719 118.050781 C 22.089844 117.878906 21.648438 117.789062 21.191406 117.789062 Z M 21.191406 14.992188 C 20.734375 14.992188 20.292969 15.082031 19.871094 15.257812 C 19.449219 15.429688 19.074219 15.679688 18.75 16.003906 C 18.425781 16.328125 18.179688 16.703125 18.003906 17.125 C 17.828125 17.546875 17.738281 17.988281 17.738281 18.445312 C 17.738281 18.902344 17.828125 19.34375 18.003906 19.765625 C 18.179688 20.1875 18.425781 20.5625 18.75 20.886719 C 19.074219 21.210938 19.449219 21.457031 19.871094 21.632812 C 20.292969 21.808594 20.734375 21.898438 21.191406 21.898438 C 21.648438 21.898438 22.089844 21.808594 22.511719 21.632812 C 22.933594 21.457031 23.308594 21.210938 23.632812 20.886719 C 23.957031 20.5625 24.207031 20.1875 24.378906 19.765625 C 24.554688 19.34375 24.644531 18.902344 24.644531 18.445312 C 24.644531 17.988281 24.554688 17.546875 24.378906 17.125 C 24.207031 16.703125 23.957031 16.328125 23.632812 16.003906 C 23.308594 15.679688 22.933594 15.429688 22.511719 15.257812 C 22.089844 15.082031 21.648438 14.992188 21.191406 14.992188 Z M 123.988281 14.992188 C 123.53125 14.992188 123.089844 15.082031 122.667969 15.257812 C 122.242188 15.429688 121.871094 15.679688 121.546875 16.003906 C 121.222656 16.328125 120.972656 16.703125 120.800781 17.125 C 120.625 17.546875 120.535156 17.988281 120.535156 18.445312 C 120.535156 18.902344 120.625 19.34375 120.800781 19.765625 C 120.972656 20.1875 121.222656 20.5625 121.546875 20.886719 C 121.871094 21.210938 122.242188 21.457031 122.667969 21.632812 C 123.089844 21.808594 123.53125 21.898438 123.988281 21.898438 C 124.445312 21.898438 124.886719 21.808594 125.308594 21.632812 C 125.730469 21.457031 126.105469 21.210938 126.429688 20.886719 C 126.75 20.5625 127 20.1875 127.175781 19.765625 C 127.351562 19.34375 127.4375 18.902344 127.4375 18.445312 C 127.4375 17.988281 127.351562 17.546875 127.175781 17.125 C 127 16.703125 126.75 16.328125 126.429688 16.003906 C 126.105469 15.679688 125.730469 15.429688 125.308594 15.257812 C 124.886719 15.082031 124.445312 14.992188 123.988281 14.992188 Z M 123.988281 117.789062 C 123.53125 117.789062 123.089844 117.878906 122.667969 118.050781 C 122.242188 118.226562 121.871094 118.476562 121.546875 118.800781 C 121.222656 119.125 120.972656 119.496094 120.800781 119.921875 C 120.625 120.34375 120.535156 120.785156 120.535156 121.242188 C 120.535156 121.699219 120.625 122.140625 120.800781 122.5625 C 120.972656 122.984375 121.222656 123.359375 121.546875 123.683594 C 121.871094 124.003906 122.242188 124.253906 122.667969 124.429688 C 123.089844 124.605469 123.53125 124.691406 123.988281 124.691406 C 124.445312 124.691406 124.886719 124.605469 125.308594 124.429688 C 125.730469 124.253906 126.105469 124.003906 126.429688 123.683594 C 126.75 123.359375 127 122.984375 127.175781 122.5625 C 127.351562 122.140625 127.4375 121.699219 127.4375 121.242188 C 127.4375 120.785156 127.351562 120.34375 127.175781 119.921875 C 127 119.496094 126.75 119.125 126.429688 118.800781 C 126.105469 118.476562 125.730469 118.226562 125.308594 118.050781 C 124.886719 117.878906 124.445312 117.789062 123.988281 117.789062 Z M 123.988281 117.789062 "/>
<g clip-path="url(#clip1)" clip-rule="nonzero">
<path style=" stroke:none;fill-rule:nonzero;fill:rgb(27.449036%,74.508667%,78.42865%);fill-opacity:1;" d="M 144.496094 21.898438 L 144.496094 10.738281 C 141.847656 9.730469 139.175781 8.003906 136.785156 5.644531 C 134.429688 3.257812 132.703125 0.582031 131.695312 -2.0625 L 13.484375 -2.0625 C 12.476562 0.582031 10.75 3.257812 8.390625 5.644531 C 6.003906 8.003906 3.332031 9.730469 0.683594 10.738281 L 0.683594 128.949219 C 1.34375 129.207031 2.007812 129.496094 2.667969 129.839844 C 2.839844 129.925781 2.984375 130.015625 3.15625 130.101562 C 3.273438 130.15625 3.386719 130.214844 3.503906 130.300781 C 3.53125 130.300781 3.558594 130.332031 3.589844 130.359375 C 3.675781 130.386719 3.734375 130.445312 3.820312 130.503906 C 4.652344 131.019531 5.488281 131.597656 6.320312 132.226562 C 6.464844 132.34375 6.609375 132.457031 6.753906 132.601562 C 6.867188 132.6875 6.953125 132.773438 7.039062 132.859375 C 7.328125 133.121094 7.617188 133.378906 7.902344 133.667969 C 8.046875 133.808594 8.191406 133.953125 8.363281 134.097656 C 8.507812 134.242188 8.652344 134.386719 8.796875 134.558594 C 9.054688 134.847656 9.339844 135.132812 9.601562 135.421875 C 9.6875 135.535156 9.773438 135.621094 9.859375 135.738281 L 10.203125 136.167969 C 10.289062 136.253906 10.347656 136.371094 10.433594 136.457031 C 10.578125 136.628906 10.722656 136.832031 10.867188 137.003906 C 11.039062 137.234375 11.183594 137.464844 11.324219 137.664062 C 11.757812 138.324219 12.160156 138.988281 12.535156 139.679688 C 12.589844 139.792969 12.648438 139.878906 12.679688 139.996094 L 12.765625 140.167969 C 12.820312 140.28125 12.878906 140.398438 12.90625 140.484375 C 13.109375 140.914062 13.3125 141.347656 13.453125 141.804688 L 131.667969 141.804688 C 132.675781 139.160156 134.398438 136.484375 136.757812 134.097656 C 137.648438 133.207031 138.570312 132.402344 139.546875 131.710938 C 140.035156 131.367188 140.527344 131.019531 141.015625 130.734375 C 141.332031 130.53125 141.675781 130.332031 141.992188 130.15625 C 142.308594 129.984375 142.65625 129.8125 142.972656 129.640625 C 143.460938 129.410156 143.976562 129.179688 144.464844 129.007812 Z M 135.550781 119.488281 C 135.550781 126.851562 129.597656 132.804688 122.234375 132.804688 L 22.945312 132.804688 C 15.582031 132.804688 9.628906 126.851562 9.628906 119.488281 L 9.628906 20.199219 C 9.628906 12.835938 15.582031 6.882812 22.945312 6.882812 L 122.234375 6.882812 C 129.597656 6.882812 135.550781 12.835938 135.550781 20.199219 Z M 135.550781 119.488281 "/>
</g>
<g clip-path="url(#clip2)" clip-rule="nonzero">
<path style=" stroke:none;fill-rule:nonzero;fill:rgb(27.449036%,74.508667%,78.42865%);fill-opacity:1;" d="M 72.597656 171.480469 L 299.742188 171.480469 L 299.742188 217.089844 L 72.597656 217.089844 Z M 72.597656 171.480469 "/>
</g>
</g>
</svg>
