<?xml version="1.0" encoding="UTF-8"?>
<svg xmlns="http://www.w3.org/2000/svg" xmlns:xlink="http://www.w3.org/1999/xlink" width="300pt" height="217.499994pt" viewBox="0 0 300 217.499994" version="1.2">
<defs>
<clipPath id="clip1">
  <path d="M 0.34375 0 L 144 0 L 144 144 L 0.34375 144 Z M 0.34375 0 "/>
</clipPath>
<clipPath id="clip2">
  <path d="M 71 173 L 299.65625 173 L 299.65625 217 L 71 217 Z M 71 173 "/>
</clipPath>
</defs>
<g id="surface1">
<path style=" stroke:none;fill-rule:nonzero;fill:rgb(0%,0%,0%);fill-opacity:1;" d="M 109.652344 59.851562 C 88.808594 39.011719 55.019531 39.011719 34.179688 59.851562 C 13.335938 80.695312 13.335938 114.480469 34.179688 135.324219 L 71.914062 173.058594 L 109.652344 135.324219 C 130.5 114.488281 130.492188 80.695312 109.652344 59.851562 Z M 109.652344 59.851562 "/>
<path style=" stroke:none;fill-rule:nonzero;fill:rgb(100%,100%,100%);fill-opacity:1;" d="M 134.707031 22.199219 L 134.707031 121.210938 C 134.707031 128.554688 128.769531 134.492188 121.425781 134.492188 L 22.414062 134.492188 C 15.074219 134.492188 9.136719 128.554688 9.136719 121.210938 L 9.136719 22.199219 C 9.136719 14.855469 15.074219 8.921875 22.414062 8.921875 L 121.425781 8.921875 C 128.769531 8.921875 134.707031 14.855469 134.707031 22.199219 Z M 134.707031 22.199219 "/>
<path style=" stroke:none;fill-rule:nonzero;fill:rgb(0%,0%,0%);fill-opacity:1;" d="M 20.664062 119.519531 C 20.210938 119.519531 19.769531 119.605469 19.347656 119.78125 C 18.925781 119.957031 18.554688 120.203125 18.230469 120.527344 C 17.910156 120.847656 17.660156 121.222656 17.484375 121.644531 C 17.3125 122.066406 17.222656 122.503906 17.222656 122.960938 C 17.222656 123.417969 17.3125 123.855469 17.484375 124.277344 C 17.660156 124.699219 17.910156 125.070312 18.230469 125.394531 C 18.554688 125.71875 18.925781 125.964844 19.347656 126.140625 C 19.769531 126.316406 20.210938 126.402344 20.664062 126.402344 C 21.121094 126.402344 21.5625 126.316406 21.984375 126.140625 C 22.40625 125.964844 22.777344 125.71875 23.097656 125.394531 C 23.421875 125.070312 23.671875 124.699219 23.84375 124.277344 C 24.019531 123.855469 24.109375 123.417969 24.109375 122.960938 C 24.109375 122.503906 24.019531 122.066406 23.84375 121.644531 C 23.671875 121.222656 23.421875 120.847656 23.097656 120.527344 C 22.777344 120.203125 22.40625 119.957031 21.984375 119.78125 C 21.5625 119.605469 21.121094 119.519531 20.664062 119.519531 Z M 20.664062 17.007812 C 20.210938 17.007812 19.769531 17.097656 19.347656 17.269531 C 18.925781 17.445312 18.554688 17.695312 18.230469 18.015625 C 17.910156 18.339844 17.660156 18.710938 17.484375 19.132812 C 17.3125 19.554688 17.222656 19.992188 17.222656 20.449219 C 17.222656 20.90625 17.3125 21.347656 17.484375 21.765625 C 17.660156 22.1875 17.910156 22.5625 18.230469 22.882812 C 18.554688 23.207031 18.925781 23.457031 19.347656 23.628906 C 19.769531 23.804688 20.210938 23.890625 20.664062 23.890625 C 21.121094 23.890625 21.5625 23.804688 21.984375 23.628906 C 22.40625 23.457031 22.777344 23.207031 23.097656 22.882812 C 23.421875 22.5625 23.671875 22.1875 23.84375 21.765625 C 24.019531 21.347656 24.109375 20.90625 24.109375 20.449219 C 24.109375 19.992188 24.019531 19.554688 23.84375 19.132812 C 23.671875 18.710938 23.421875 18.339844 23.097656 18.015625 C 22.777344 17.695312 22.40625 17.445312 21.984375 17.269531 C 21.5625 17.097656 21.121094 17.007812 20.664062 17.007812 Z M 123.175781 17.007812 C 122.71875 17.007812 122.28125 17.097656 121.859375 17.269531 C 121.4375 17.445312 121.066406 17.695312 120.742188 18.015625 C 120.417969 18.339844 120.171875 18.710938 119.996094 19.132812 C 119.820312 19.554688 119.734375 19.992188 119.734375 20.449219 C 119.734375 20.90625 119.820312 21.347656 119.996094 21.765625 C 120.171875 22.1875 120.417969 22.5625 120.742188 22.882812 C 121.066406 23.207031 121.4375 23.457031 121.859375 23.628906 C 122.28125 23.804688 122.71875 23.890625 123.175781 23.890625 C 123.632812 23.890625 124.070312 23.804688 124.492188 23.628906 C 124.914062 23.457031 125.285156 23.207031 125.609375 22.882812 C 125.933594 22.5625 126.179688 22.1875 126.355469 21.765625 C 126.53125 21.347656 126.617188 20.90625 126.617188 20.449219 C 126.617188 19.992188 126.53125 19.554688 126.355469 19.132812 C 126.179688 18.710938 125.933594 18.339844 125.609375 18.015625 C 125.285156 17.695312 124.914062 17.445312 124.492188 17.269531 C 124.070312 17.097656 123.632812 17.007812 123.175781 17.007812 Z M 123.175781 119.519531 C 122.71875 119.519531 122.28125 119.605469 121.859375 119.78125 C 121.4375 119.957031 121.066406 120.203125 120.742188 120.527344 C 120.417969 120.847656 120.171875 121.222656 119.996094 121.644531 C 119.820312 122.066406 119.734375 122.503906 119.734375 122.960938 C 119.734375 123.417969 119.820312 123.855469 119.996094 124.277344 C 120.171875 124.699219 120.417969 125.070312 120.742188 125.394531 C 121.066406 125.71875 121.4375 125.964844 121.859375 126.140625 C 122.28125 126.316406 122.71875 126.402344 123.175781 126.402344 C 123.632812 126.402344 124.070312 126.316406 124.492188 126.140625 C 124.914062 125.964844 125.285156 125.71875 125.609375 125.394531 C 125.933594 125.070312 126.179688 124.699219 126.355469 124.277344 C 126.53125 123.855469 126.617188 123.417969 126.617188 122.960938 C 126.617188 122.503906 126.53125 122.066406 126.355469 121.644531 C 126.179688 121.222656 125.933594 120.847656 125.609375 120.527344 C 125.285156 120.203125 124.914062 119.957031 124.492188 119.78125 C 124.070312 119.605469 123.632812 119.519531 123.175781 119.519531 Z M 123.175781 119.519531 "/>
<g clip-path="url(#clip1)" clip-rule="nonzero">
<path style=" stroke:none;fill-rule:nonzero;fill:rgb(0%,0%,0%);fill-opacity:1;" d="M 143.625 23.890625 L 143.625 12.761719 C 140.988281 11.757812 138.320312 10.039062 135.941406 7.6875 C 133.585938 5.304688 131.867188 2.640625 130.863281 0 L 12.980469 0 C 11.976562 2.640625 10.253906 5.304688 7.902344 7.6875 C 5.523438 10.039062 2.855469 11.757812 0.214844 12.761719 L 0.214844 130.648438 C 0.875 130.90625 1.535156 131.191406 2.195312 131.535156 C 2.367188 131.621094 2.511719 131.707031 2.683594 131.792969 C 2.796875 131.851562 2.910156 131.910156 3.027344 131.996094 C 3.054688 131.996094 3.082031 132.023438 3.113281 132.054688 C 3.199219 132.082031 3.253906 132.140625 3.339844 132.195312 C 4.171875 132.710938 5.003906 133.285156 5.835938 133.917969 C 5.980469 134.03125 6.125 134.148438 6.265625 134.289062 C 6.382812 134.375 6.46875 134.460938 6.554688 134.546875 C 6.839844 134.804688 7.128906 135.066406 7.414062 135.351562 C 7.558594 135.496094 7.703125 135.636719 7.875 135.78125 C 8.015625 135.925781 8.160156 136.070312 8.304688 136.242188 C 8.5625 136.527344 8.847656 136.8125 9.105469 137.101562 C 9.191406 137.214844 9.277344 137.300781 9.363281 137.417969 L 9.710938 137.847656 C 9.796875 137.933594 9.851562 138.046875 9.9375 138.132812 C 10.082031 138.304688 10.226562 138.507812 10.367188 138.679688 C 10.539062 138.90625 10.683594 139.136719 10.828125 139.339844 C 11.257812 139.996094 11.660156 140.65625 12.03125 141.347656 C 12.089844 141.460938 12.148438 141.546875 12.175781 141.660156 L 12.261719 141.832031 C 12.320312 141.949219 12.375 142.0625 12.40625 142.148438 C 12.605469 142.578125 12.808594 143.007812 12.949219 143.46875 L 130.835938 143.46875 C 131.839844 140.828125 133.558594 138.164062 135.910156 135.78125 C 136.800781 134.890625 137.71875 134.089844 138.691406 133.402344 C 139.179688 133.058594 139.667969 132.710938 140.15625 132.425781 C 140.472656 132.226562 140.816406 132.023438 141.132812 131.851562 C 141.445312 131.679688 141.789062 131.507812 142.105469 131.335938 C 142.59375 131.105469 143.109375 130.875 143.597656 130.703125 Z M 134.707031 121.210938 C 134.707031 128.554688 128.769531 134.492188 121.425781 134.492188 L 22.414062 134.492188 C 15.074219 134.492188 9.136719 128.554688 9.136719 121.210938 L 9.136719 22.199219 C 9.136719 14.855469 15.074219 8.921875 22.414062 8.921875 L 121.425781 8.921875 C 128.769531 8.921875 134.707031 14.855469 134.707031 22.199219 Z M 134.707031 121.210938 "/>
</g>
<g clip-path="url(#clip2)" clip-rule="nonzero">
<path style=" stroke:none;fill-rule:nonzero;fill:rgb(0%,0%,0%);fill-opacity:1;" d="M 71.929688 173.058594 L 299.355469 173.058594 L 299.355469 217.089844 L 71.929688 217.089844 Z M 71.929688 173.058594 "/>
</g>
</g>
</svg>
