<?xml version="1.0" encoding="UTF-8"?>
<svg xmlns="http://www.w3.org/2000/svg" xmlns:xlink="http://www.w3.org/1999/xlink" width="300pt" height="217.499994pt" viewBox="0 0 300 217.499994" version="1.2">
<defs>
<clipPath id="clip1">
  <path d="M 70 172 L 299.65625 172 L 299.65625 217 L 70 217 Z M 70 172 "/>
</clipPath>
<clipPath id="clip2">
  <path d="M 0.34375 4 L 141 4 L 141 145 L 0.34375 145 Z M 0.34375 4 "/>
</clipPath>
</defs>
<g id="surface1">
<g clip-path="url(#clip1)" clip-rule="nonzero">
<path style=" stroke:none;fill-rule:nonzero;fill:rgb(34.899902%,78.039551%,71.369934%);fill-opacity:1;" d="M 70.25 172.914062 L 299.589844 172.914062 L 299.589844 217.089844 L 70.25 217.089844 Z M 70.25 172.914062 "/>
</g>
<path style=" stroke:none;fill-rule:nonzero;fill:rgb(34.899902%,78.039551%,71.369934%);fill-opacity:1;" d="M 107.0625 62.457031 C 86.726562 42.121094 53.757812 42.121094 33.421875 62.457031 C 13.085938 82.792969 13.085938 115.757812 33.421875 136.09375 L 70.242188 172.914062 L 107.0625 136.09375 C 127.402344 115.765625 127.394531 82.792969 107.0625 62.457031 Z M 107.0625 62.457031 "/>
<path style=" stroke:none;fill-rule:nonzero;fill:rgb(100%,100%,100%);fill-opacity:1;" d="M 131.503906 25.71875 L 131.503906 122.328125 C 131.503906 129.492188 125.710938 135.285156 118.546875 135.285156 L 21.9375 135.285156 C 14.773438 135.285156 8.980469 129.492188 8.980469 122.328125 L 8.980469 25.71875 C 8.980469 18.554688 14.773438 12.761719 21.9375 12.761719 L 118.546875 12.761719 C 125.710938 12.761719 131.503906 18.554688 131.503906 25.71875 Z M 131.503906 25.71875 "/>
<path style=" stroke:none;fill-rule:nonzero;fill:rgb(34.899902%,78.039551%,71.369934%);fill-opacity:1;" d="M 20.230469 120.675781 C 19.785156 120.675781 19.359375 120.761719 18.945312 120.929688 C 18.535156 121.101562 18.171875 121.34375 17.855469 121.660156 C 17.542969 121.972656 17.300781 122.335938 17.128906 122.75 C 16.957031 123.160156 16.875 123.589844 16.875 124.035156 C 16.875 124.480469 16.957031 124.90625 17.128906 125.320312 C 17.300781 125.730469 17.542969 126.09375 17.855469 126.40625 C 18.171875 126.722656 18.535156 126.964844 18.945312 127.136719 C 19.359375 127.304688 19.785156 127.390625 20.230469 127.390625 C 20.675781 127.390625 21.105469 127.304688 21.515625 127.136719 C 21.929688 126.964844 22.292969 126.722656 22.605469 126.40625 C 22.921875 126.09375 23.164062 125.730469 23.335938 125.320312 C 23.503906 124.90625 23.589844 124.480469 23.589844 124.035156 C 23.589844 123.589844 23.503906 123.160156 23.335938 122.75 C 23.164062 122.335938 22.921875 121.972656 22.605469 121.660156 C 22.292969 121.34375 21.929688 121.101562 21.515625 120.929688 C 21.105469 120.761719 20.675781 120.675781 20.230469 120.675781 Z M 20.230469 20.652344 C 19.785156 20.652344 19.359375 20.738281 18.945312 20.910156 C 18.535156 21.082031 18.171875 21.324219 17.855469 21.636719 C 17.542969 21.953125 17.300781 22.316406 17.128906 22.726562 C 16.957031 23.140625 16.875 23.566406 16.875 24.011719 C 16.875 24.457031 16.957031 24.886719 17.128906 25.296875 C 17.300781 25.710938 17.542969 26.074219 17.855469 26.386719 C 18.171875 26.703125 18.535156 26.945312 18.945312 27.113281 C 19.359375 27.285156 19.785156 27.371094 20.230469 27.371094 C 20.675781 27.371094 21.105469 27.285156 21.515625 27.113281 C 21.929688 26.945312 22.292969 26.703125 22.605469 26.386719 C 22.921875 26.074219 23.164062 25.710938 23.335938 25.296875 C 23.503906 24.886719 23.589844 24.457031 23.589844 24.011719 C 23.589844 23.566406 23.503906 23.140625 23.335938 22.726562 C 23.164062 22.316406 22.921875 21.953125 22.605469 21.636719 C 22.292969 21.324219 21.929688 21.082031 21.515625 20.910156 C 21.105469 20.738281 20.675781 20.652344 20.230469 20.652344 Z M 120.253906 20.652344 C 119.808594 20.652344 119.378906 20.738281 118.96875 20.910156 C 118.554688 21.082031 118.191406 21.324219 117.878906 21.636719 C 117.5625 21.953125 117.320312 22.316406 117.148438 22.726562 C 116.980469 23.140625 116.894531 23.566406 116.894531 24.011719 C 116.894531 24.457031 116.980469 24.886719 117.148438 25.296875 C 117.320312 25.710938 117.5625 26.074219 117.878906 26.386719 C 118.191406 26.703125 118.554688 26.945312 118.96875 27.113281 C 119.378906 27.285156 119.808594 27.371094 120.253906 27.371094 C 120.699219 27.371094 121.125 27.285156 121.539062 27.113281 C 121.949219 26.945312 122.3125 26.703125 122.628906 26.386719 C 122.941406 26.074219 123.183594 25.710938 123.355469 25.296875 C 123.527344 24.886719 123.609375 24.457031 123.609375 24.011719 C 123.609375 23.566406 123.527344 23.140625 123.355469 22.726562 C 123.183594 22.316406 122.941406 21.953125 122.628906 21.636719 C 122.3125 21.324219 121.949219 21.082031 121.539062 20.910156 C 121.125 20.738281 120.699219 20.652344 120.253906 20.652344 Z M 120.253906 120.675781 C 119.808594 120.675781 119.378906 120.761719 118.96875 120.929688 C 118.554688 121.101562 118.191406 121.34375 117.878906 121.660156 C 117.5625 121.972656 117.320312 122.335938 117.148438 122.75 C 116.980469 123.160156 116.894531 123.589844 116.894531 124.035156 C 116.894531 124.480469 116.980469 124.90625 117.148438 125.320312 C 117.320312 125.730469 117.5625 126.09375 117.878906 126.40625 C 118.191406 126.722656 118.554688 126.964844 118.96875 127.136719 C 119.378906 127.304688 119.808594 127.390625 120.253906 127.390625 C 120.699219 127.390625 121.125 127.304688 121.539062 127.136719 C 121.949219 126.964844 122.3125 126.722656 122.628906 126.40625 C 122.941406 126.09375 123.183594 125.730469 123.355469 125.320312 C 123.527344 124.90625 123.609375 124.480469 123.609375 124.035156 C 123.609375 123.589844 123.527344 123.160156 123.355469 122.75 C 123.183594 122.335938 122.941406 121.972656 122.628906 121.660156 C 122.3125 121.34375 121.949219 121.101562 121.539062 120.929688 C 121.125 120.761719 120.699219 120.675781 120.253906 120.675781 Z M 120.253906 120.675781 "/>
<g clip-path="url(#clip2)" clip-rule="nonzero">
<path style=" stroke:none;fill-rule:nonzero;fill:rgb(34.899902%,78.039551%,71.369934%);fill-opacity:1;" d="M 140.207031 27.371094 L 140.207031 16.511719 C 137.632812 15.53125 135.027344 13.855469 132.707031 11.558594 C 130.410156 9.234375 128.730469 6.632812 127.753906 4.058594 L 12.730469 4.058594 C 11.753906 6.632812 10.074219 9.234375 7.777344 11.558594 C 5.457031 13.855469 2.851562 15.53125 0.277344 16.511719 L 0.277344 131.535156 C 0.921875 131.785156 1.566406 132.066406 2.207031 132.402344 C 2.375 132.484375 2.515625 132.570312 2.683594 132.652344 C 2.796875 132.707031 2.910156 132.765625 3.019531 132.847656 C 3.046875 132.847656 3.078125 132.875 3.105469 132.90625 C 3.1875 132.933594 3.246094 132.988281 3.328125 133.042969 C 4.140625 133.546875 4.953125 134.109375 5.761719 134.722656 C 5.902344 134.835938 6.042969 134.949219 6.183594 135.085938 C 6.292969 135.171875 6.378906 135.253906 6.460938 135.339844 C 6.742188 135.589844 7.023438 135.84375 7.300781 136.125 C 7.441406 136.261719 7.582031 136.402344 7.75 136.542969 C 7.890625 136.683594 8.03125 136.824219 8.167969 136.992188 C 8.421875 137.269531 8.703125 137.550781 8.953125 137.832031 C 9.039062 137.941406 9.121094 138.027344 9.207031 138.136719 L 9.542969 138.558594 C 9.625 138.640625 9.679688 138.753906 9.765625 138.835938 C 9.90625 139.003906 10.046875 139.203125 10.183594 139.371094 C 10.351562 139.59375 10.492188 139.816406 10.632812 140.011719 C 11.050781 140.65625 11.445312 141.300781 11.808594 141.972656 C 11.863281 142.085938 11.921875 142.167969 11.949219 142.28125 L 12.03125 142.449219 C 12.089844 142.558594 12.144531 142.671875 12.171875 142.753906 C 12.367188 143.175781 12.5625 143.59375 12.703125 144.042969 L 127.726562 144.042969 C 128.703125 141.46875 130.382812 138.867188 132.679688 136.542969 C 133.546875 135.675781 134.441406 134.890625 135.394531 134.21875 C 135.867188 133.882812 136.34375 133.546875 136.820312 133.269531 C 137.128906 133.074219 137.464844 132.875 137.773438 132.707031 C 138.078125 132.539062 138.414062 132.371094 138.722656 132.207031 C 139.199219 131.980469 139.703125 131.757812 140.179688 131.589844 Z M 131.503906 122.328125 C 131.503906 129.492188 125.710938 135.285156 118.546875 135.285156 L 21.9375 135.285156 C 14.773438 135.285156 8.980469 129.492188 8.980469 122.328125 L 8.980469 25.71875 C 8.980469 18.554688 14.773438 12.761719 21.9375 12.761719 L 118.546875 12.761719 C 125.710938 12.761719 131.503906 18.554688 131.503906 25.71875 Z M 131.503906 122.328125 "/>
</g>
</g>
</svg>
