<?xml version="1.0" encoding="UTF-8"?>
<svg xmlns="http://www.w3.org/2000/svg" xmlns:xlink="http://www.w3.org/1999/xlink" width="375pt" height="374.999991pt" viewBox="0 0 375 374.999991" version="1.2">
<defs>
<clipPath id="clip1">
  <path d="M 0 140 L 47 140 L 47 187.296875 L 0 187.296875 Z M 0 140 "/>
</clipPath>
<clipPath id="clip2">
  <path d="M 187 69.5625 L 187.289062 69.5625 L 187.289062 93.28125 L 187 93.28125 Z M 187 69.5625 "/>
</clipPath>
<clipPath id="clip3">
  <path d="M 140.082031 0 L 187.289062 0 L 187.289062 70 L 140.082031 70 Z M 140.082031 0 "/>
</clipPath>
<clipPath id="clip4">
  <path d="M 140 46 L 187.296875 46 L 187.296875 94 L 140 94 Z M 140 46 "/>
</clipPath>
<clipPath id="clip5">
  <path d="M 140 93 L 187.296875 93 L 187.296875 141 L 140 141 Z M 140 93 "/>
</clipPath>
<clipPath id="clip6">
  <path d="M 93 46 L 187.296875 46 L 187.296875 117 L 93 117 Z M 93 46 "/>
</clipPath>
<clipPath id="clip7">
  <path d="M 140 46 L 187.296875 46 L 187.296875 100 L 140 100 Z M 140 46 "/>
</clipPath>
<clipPath id="clip8">
  <path d="M 187 92.648438 L 187.289062 92.648438 L 187.289062 93.597656 L 187 93.597656 Z M 187 92.648438 "/>
</clipPath>
<clipPath id="clip9">
  <path d="M 187 93 L 187.289062 93 L 187.289062 93.597656 L 187 93.597656 Z M 187 93 "/>
</clipPath>
<clipPath id="clip10">
  <path d="M 187 163.484375 L 187.289062 163.484375 L 187.289062 187.199219 L 187 187.199219 Z M 187 163.484375 "/>
</clipPath>
<clipPath id="clip11">
  <path d="M 140.082031 93 L 187.289062 93 L 187.289062 164 L 140.082031 164 Z M 140.082031 93 "/>
</clipPath>
<clipPath id="clip12">
  <path d="M 187 93 L 187.289062 93 L 187.289062 93.597656 L 187 93.597656 Z M 187 93 "/>
</clipPath>
<clipPath id="clip13">
  <path d="M 140 140 L 187.296875 140 L 187.296875 187.296875 L 140 187.296875 Z M 140 140 "/>
</clipPath>
<clipPath id="clip14">
  <path d="M 93 140 L 141 140 L 141 187.296875 L 93 187.296875 Z M 93 140 "/>
</clipPath>
<clipPath id="clip15">
  <path d="M 46 140 L 94 140 L 94 187.296875 L 46 187.296875 Z M 46 140 "/>
</clipPath>
<clipPath id="clip16">
  <path d="M 92.332031 187 L 93.28125 187 L 93.28125 187.289062 L 92.332031 187.289062 Z M 92.332031 187 "/>
</clipPath>
<clipPath id="clip17">
  <path d="M 0 140.082031 L 77.785156 140.082031 L 77.785156 187.289062 L 0 187.289062 Z M 0 140.082031 "/>
</clipPath>
<clipPath id="clip18">
  <path d="M 46.164062 140.082031 L 93.28125 140.082031 L 93.28125 187.289062 L 46.164062 187.289062 Z M 46.164062 140.082031 "/>
</clipPath>
<clipPath id="clip19">
  <path d="M 186.25 187 L 187.199219 187 L 187.199219 187.289062 L 186.25 187.289062 Z M 186.25 187 "/>
</clipPath>
<clipPath id="clip20">
  <path d="M 93 140.082031 L 171.703125 140.082031 L 171.703125 187.289062 L 93 187.289062 Z M 93 140.082031 "/>
</clipPath>
<clipPath id="clip21">
  <path d="M 186.25 187 L 187.199219 187 L 187.199219 187.289062 L 186.25 187.289062 Z M 186.25 187 "/>
</clipPath>
<clipPath id="clip22">
  <path d="M 140.082031 140.082031 L 187.199219 140.082031 L 187.199219 187.289062 L 140.082031 187.289062 Z M 140.082031 140.082031 "/>
</clipPath>
<clipPath id="clip23">
  <path d="M 93 187 L 93.914062 187 L 93.914062 187.289062 L 93 187.289062 Z M 93 187 "/>
</clipPath>
<clipPath id="clip24">
  <path d="M 92.648438 187 L 93.597656 187 L 93.597656 187.289062 L 92.648438 187.289062 Z M 92.648438 187 "/>
</clipPath>
<clipPath id="clip25">
  <path d="M 93 187 L 93.597656 187 L 93.597656 187.289062 L 93 187.289062 Z M 93 187 "/>
</clipPath>
<clipPath id="clip26">
  <path d="M 140 0 L 187.296875 0 L 187.296875 47 L 140 47 Z M 140 0 "/>
</clipPath>
<clipPath id="clip27">
  <path d="M 93 0 L 187.296875 0 L 187.296875 24 L 93 24 Z M 93 0 "/>
</clipPath>
<clipPath id="clip28">
  <path d="M 171 0 L 187.296875 0 L 187.296875 6 L 171 6 Z M 171 0 "/>
</clipPath>
<clipPath id="clip29">
  <path d="M 0 187.5 L 47 187.5 L 47 259 L 0 259 Z M 0 187.5 "/>
</clipPath>
<clipPath id="clip30">
  <path d="M 0 187.5 L 47 187.5 L 47 241 L 0 241 Z M 0 187.5 "/>
</clipPath>
<clipPath id="clip31">
  <path d="M 187 258.019531 L 187.289062 258.019531 L 187.289062 281.734375 L 187 281.734375 Z M 187 258.019531 "/>
</clipPath>
<clipPath id="clip32">
  <path d="M 140.082031 187.5 L 187.289062 187.5 L 187.289062 258.652344 L 140.082031 258.652344 Z M 140.082031 187.5 "/>
</clipPath>
<clipPath id="clip33">
  <path d="M 187 187.5 L 187.289062 187.5 L 187.289062 188.449219 L 187 188.449219 Z M 187 187.5 "/>
</clipPath>
<clipPath id="clip34">
  <path d="M 140 234 L 187.296875 234 L 187.296875 282 L 140 282 Z M 140 234 "/>
</clipPath>
<clipPath id="clip35">
  <path d="M 140 281 L 187.296875 281 L 187.296875 329 L 140 329 Z M 140 281 "/>
</clipPath>
<clipPath id="clip36">
  <path d="M 93 234 L 187.296875 234 L 187.296875 306 L 93 306 Z M 93 234 "/>
</clipPath>
<clipPath id="clip37">
  <path d="M 140 234 L 187.296875 234 L 187.296875 288 L 140 288 Z M 140 234 "/>
</clipPath>
<clipPath id="clip38">
  <path d="M 187 281.101562 L 187.289062 281.101562 L 187.289062 282 L 187 282 Z M 187 281.101562 "/>
</clipPath>
<clipPath id="clip39">
  <path d="M 187 281.417969 L 187.289062 281.417969 L 187.289062 282 L 187 282 Z M 187 281.417969 "/>
</clipPath>
<clipPath id="clip40">
  <path d="M 187 352 L 187.289062 352 L 187.289062 375 L 187 375 Z M 187 352 "/>
</clipPath>
<clipPath id="clip41">
  <path d="M 140.082031 281.417969 L 187.289062 281.417969 L 187.289062 352.570312 L 140.082031 352.570312 Z M 140.082031 281.417969 "/>
</clipPath>
<clipPath id="clip42">
  <path d="M 187 281.417969 L 187.289062 281.417969 L 187.289062 282.050781 L 187 282.050781 Z M 187 281.417969 "/>
</clipPath>
<clipPath id="clip43">
  <path d="M 140 328 L 187.296875 328 L 187.296875 375 L 140 375 Z M 140 328 "/>
</clipPath>
<clipPath id="clip44">
  <path d="M 0 328.539062 L 77.785156 328.539062 L 77.785156 375 L 0 375 Z M 0 328.539062 "/>
</clipPath>
<clipPath id="clip45">
  <path d="M 46.164062 328.539062 L 93.28125 328.539062 L 93.28125 375 L 46.164062 375 Z M 46.164062 328.539062 "/>
</clipPath>
<clipPath id="clip46">
  <path d="M 93 328.539062 L 171.703125 328.539062 L 171.703125 375 L 93 375 Z M 93 328.539062 "/>
</clipPath>
<clipPath id="clip47">
  <path d="M 140.082031 328.539062 L 187.199219 328.539062 L 187.199219 375 L 140.082031 375 Z M 140.082031 328.539062 "/>
</clipPath>
<clipPath id="clip48">
  <path d="M 93 187.5 L 94 187.5 L 94 188 L 93 188 Z M 93 187.5 "/>
</clipPath>
<clipPath id="clip49">
  <path d="M 92 187.5 L 94 187.5 L 94 188 L 92 188 Z M 92 187.5 "/>
</clipPath>
<clipPath id="clip50">
  <path d="M 46 187.5 L 94 187.5 L 94 235 L 46 235 Z M 46 187.5 "/>
</clipPath>
<clipPath id="clip51">
  <path d="M 0 187.5 L 94 187.5 L 94 212 L 0 212 Z M 0 187.5 "/>
</clipPath>
<clipPath id="clip52">
  <path d="M 77 187.5 L 94 187.5 L 94 194 L 77 194 Z M 77 187.5 "/>
</clipPath>
<clipPath id="clip53">
  <path d="M 0 187.5 L 47 187.5 L 47 235 L 0 235 Z M 0 187.5 "/>
</clipPath>
<clipPath id="clip54">
  <path d="M 140 187.5 L 187.296875 187.5 L 187.296875 235 L 140 235 Z M 140 187.5 "/>
</clipPath>
<clipPath id="clip55">
  <path d="M 93 187.5 L 187.296875 187.5 L 187.296875 212 L 93 212 Z M 93 187.5 "/>
</clipPath>
<clipPath id="clip56">
  <path d="M 171 187.5 L 187.296875 187.5 L 187.296875 194 L 171 194 Z M 171 187.5 "/>
</clipPath>
<clipPath id="clip57">
  <path d="M 93 187.5 L 141 187.5 L 141 235 L 93 235 Z M 93 187.5 "/>
</clipPath>
<clipPath id="clip58">
  <path d="M 46 187.5 L 141 187.5 L 141 259 L 46 259 Z M 46 187.5 "/>
</clipPath>
<clipPath id="clip59">
  <path d="M 93 187.5 L 141 187.5 L 141 241 L 93 241 Z M 93 187.5 "/>
</clipPath>
<clipPath id="clip60">
  <path d="M 186.546875 46 L 234 46 L 234 94 L 186.546875 94 Z M 186.546875 46 "/>
</clipPath>
<clipPath id="clip61">
  <path d="M 186.546875 0 L 234 0 L 234 70 L 186.546875 70 Z M 186.546875 0 "/>
</clipPath>
<clipPath id="clip62">
  <path d="M 186.546875 0 L 234 0 L 234 53 L 186.546875 53 Z M 186.546875 0 "/>
</clipPath>
<clipPath id="clip63">
  <path d="M 186.546875 69 L 187 69 L 187 94 L 186.546875 94 Z M 186.546875 69 "/>
</clipPath>
<clipPath id="clip64">
  <path d="M 186.546875 93 L 187 93 L 187 94 L 186.546875 94 Z M 186.546875 93 "/>
</clipPath>
<clipPath id="clip65">
  <path d="M 186.546875 92 L 187 92 L 187 94 L 186.546875 94 Z M 186.546875 92 "/>
</clipPath>
<clipPath id="clip66">
  <path d="M 186.546875 46 L 281 46 L 281 117 L 186.546875 117 Z M 186.546875 46 "/>
</clipPath>
<clipPath id="clip67">
  <path d="M 186.546875 93 L 234 93 L 234 141 L 186.546875 141 Z M 186.546875 93 "/>
</clipPath>
<clipPath id="clip68">
  <path d="M 186.546875 140 L 234 140 L 234 187.296875 L 186.546875 187.296875 Z M 186.546875 140 "/>
</clipPath>
<clipPath id="clip69">
  <path d="M 186.546875 93 L 234 93 L 234 164 L 186.546875 164 Z M 186.546875 93 "/>
</clipPath>
<clipPath id="clip70">
  <path d="M 186.546875 93 L 234 93 L 234 147 L 186.546875 147 Z M 186.546875 93 "/>
</clipPath>
<clipPath id="clip71">
  <path d="M 186.546875 163 L 187 163 L 187 187.296875 L 186.546875 187.296875 Z M 186.546875 163 "/>
</clipPath>
<clipPath id="clip72">
  <path d="M 374.382812 69.5625 L 374.789062 69.5625 L 374.789062 93.28125 L 374.382812 93.28125 Z M 374.382812 69.5625 "/>
</clipPath>
<clipPath id="clip73">
  <path d="M 327.582031 0 L 374.789062 0 L 374.789062 70 L 327.582031 70 Z M 327.582031 0 "/>
</clipPath>
<clipPath id="clip74">
  <path d="M 327 46 L 374.796875 46 L 374.796875 94 L 327 94 Z M 327 46 "/>
</clipPath>
<clipPath id="clip75">
  <path d="M 327 93 L 374.796875 93 L 374.796875 141 L 327 141 Z M 327 93 "/>
</clipPath>
<clipPath id="clip76">
  <path d="M 280 46 L 374.796875 46 L 374.796875 117 L 280 117 Z M 280 46 "/>
</clipPath>
<clipPath id="clip77">
  <path d="M 327 46 L 374.796875 46 L 374.796875 100 L 327 100 Z M 327 46 "/>
</clipPath>
<clipPath id="clip78">
  <path d="M 374.382812 92.648438 L 374.789062 92.648438 L 374.789062 93.597656 L 374.382812 93.597656 Z M 374.382812 92.648438 "/>
</clipPath>
<clipPath id="clip79">
  <path d="M 374.382812 93 L 374.789062 93 L 374.789062 93.597656 L 374.382812 93.597656 Z M 374.382812 93 "/>
</clipPath>
<clipPath id="clip80">
  <path d="M 374.382812 163.484375 L 374.789062 163.484375 L 374.789062 187.199219 L 374.382812 187.199219 Z M 374.382812 163.484375 "/>
</clipPath>
<clipPath id="clip81">
  <path d="M 327.582031 93 L 374.789062 93 L 374.789062 164 L 327.582031 164 Z M 327.582031 93 "/>
</clipPath>
<clipPath id="clip82">
  <path d="M 374.382812 93 L 374.789062 93 L 374.789062 93.597656 L 374.382812 93.597656 Z M 374.382812 93 "/>
</clipPath>
<clipPath id="clip83">
  <path d="M 327 140 L 374.796875 140 L 374.796875 187.296875 L 327 187.296875 Z M 327 140 "/>
</clipPath>
<clipPath id="clip84">
  <path d="M 280 140 L 328 140 L 328 187.296875 L 280 187.296875 Z M 280 140 "/>
</clipPath>
<clipPath id="clip85">
  <path d="M 233 140 L 281 140 L 281 187.296875 L 233 187.296875 Z M 233 140 "/>
</clipPath>
<clipPath id="clip86">
  <path d="M 280 187 L 280.78125 187 L 280.78125 187.289062 L 280 187.289062 Z M 280 187 "/>
</clipPath>
<clipPath id="clip87">
  <path d="M 186.546875 140.082031 L 265.285156 140.082031 L 265.285156 187.289062 L 186.546875 187.289062 Z M 186.546875 140.082031 "/>
</clipPath>
<clipPath id="clip88">
  <path d="M 233.664062 140.082031 L 280.78125 140.082031 L 280.78125 187.289062 L 233.664062 187.289062 Z M 233.664062 140.082031 "/>
</clipPath>
<clipPath id="clip89">
  <path d="M 186.546875 187 L 187.492188 187 L 187.492188 187.289062 L 186.546875 187.289062 Z M 186.546875 187 "/>
</clipPath>
<clipPath id="clip90">
  <path d="M 374 187 L 374.699219 187 L 374.699219 187.289062 L 374 187.289062 Z M 374 187 "/>
</clipPath>
<clipPath id="clip91">
  <path d="M 280.464844 140.082031 L 359.203125 140.082031 L 359.203125 187.289062 L 280.464844 187.289062 Z M 280.464844 140.082031 "/>
</clipPath>
<clipPath id="clip92">
  <path d="M 374 187 L 374.699219 187 L 374.699219 187.289062 L 374 187.289062 Z M 374 187 "/>
</clipPath>
<clipPath id="clip93">
  <path d="M 327.582031 140.082031 L 374.699219 140.082031 L 374.699219 187.289062 L 327.582031 187.289062 Z M 327.582031 140.082031 "/>
</clipPath>
<clipPath id="clip94">
  <path d="M 280.464844 187 L 281.414062 187 L 281.414062 187.289062 L 280.464844 187.289062 Z M 280.464844 187 "/>
</clipPath>
<clipPath id="clip95">
  <path d="M 280.148438 187 L 281 187 L 281 187.289062 L 280.148438 187.289062 Z M 280.148438 187 "/>
</clipPath>
<clipPath id="clip96">
  <path d="M 280.464844 187 L 281 187 L 281 187.289062 L 280.464844 187.289062 Z M 280.464844 187 "/>
</clipPath>
<clipPath id="clip97">
  <path d="M 186.546875 0 L 281 0 L 281 24 L 186.546875 24 Z M 186.546875 0 "/>
</clipPath>
<clipPath id="clip98">
  <path d="M 186.546875 0 L 234 0 L 234 47 L 186.546875 47 Z M 186.546875 0 "/>
</clipPath>
<clipPath id="clip99">
  <path d="M 327 0 L 374.796875 0 L 374.796875 47 L 327 47 Z M 327 0 "/>
</clipPath>
<clipPath id="clip100">
  <path d="M 280 0 L 374.796875 0 L 374.796875 24 L 280 24 Z M 280 0 "/>
</clipPath>
<clipPath id="clip101">
  <path d="M 358 0 L 374.796875 0 L 374.796875 6 L 358 6 Z M 358 0 "/>
</clipPath>
<clipPath id="clip102">
  <path d="M 186.546875 234 L 234 234 L 234 282 L 186.546875 282 Z M 186.546875 234 "/>
</clipPath>
<clipPath id="clip103">
  <path d="M 186.546875 187.5 L 234 187.5 L 234 259 L 186.546875 259 Z M 186.546875 187.5 "/>
</clipPath>
<clipPath id="clip104">
  <path d="M 186.546875 187.5 L 234 187.5 L 234 241 L 186.546875 241 Z M 186.546875 187.5 "/>
</clipPath>
<clipPath id="clip105">
  <path d="M 186.546875 258 L 187 258 L 187 282 L 186.546875 282 Z M 186.546875 258 "/>
</clipPath>
<clipPath id="clip106">
  <path d="M 186.546875 281 L 187 281 L 187 282 L 186.546875 282 Z M 186.546875 281 "/>
</clipPath>
<clipPath id="clip107">
  <path d="M 186.546875 234 L 281 234 L 281 306 L 186.546875 306 Z M 186.546875 234 "/>
</clipPath>
<clipPath id="clip108">
  <path d="M 186.546875 281 L 234 281 L 234 329 L 186.546875 329 Z M 186.546875 281 "/>
</clipPath>
<clipPath id="clip109">
  <path d="M 186.546875 328 L 234 328 L 234 375 L 186.546875 375 Z M 186.546875 328 "/>
</clipPath>
<clipPath id="clip110">
  <path d="M 186.546875 281 L 234 281 L 234 353 L 186.546875 353 Z M 186.546875 281 "/>
</clipPath>
<clipPath id="clip111">
  <path d="M 186.546875 281 L 234 281 L 234 335 L 186.546875 335 Z M 186.546875 281 "/>
</clipPath>
<clipPath id="clip112">
  <path d="M 186.546875 352 L 187 352 L 187 375 L 186.546875 375 Z M 186.546875 352 "/>
</clipPath>
<clipPath id="clip113">
  <path d="M 374.382812 258.019531 L 374.789062 258.019531 L 374.789062 281.734375 L 374.382812 281.734375 Z M 374.382812 258.019531 "/>
</clipPath>
<clipPath id="clip114">
  <path d="M 327.582031 187.5 L 374.789062 187.5 L 374.789062 258.652344 L 327.582031 258.652344 Z M 327.582031 187.5 "/>
</clipPath>
<clipPath id="clip115">
  <path d="M 374.382812 187.5 L 374.789062 187.5 L 374.789062 188.449219 L 374.382812 188.449219 Z M 374.382812 187.5 "/>
</clipPath>
<clipPath id="clip116">
  <path d="M 327 234 L 374.796875 234 L 374.796875 282 L 327 282 Z M 327 234 "/>
</clipPath>
<clipPath id="clip117">
  <path d="M 327 281 L 374.796875 281 L 374.796875 329 L 327 329 Z M 327 281 "/>
</clipPath>
<clipPath id="clip118">
  <path d="M 280 234 L 374.796875 234 L 374.796875 306 L 280 306 Z M 280 234 "/>
</clipPath>
<clipPath id="clip119">
  <path d="M 327 234 L 374.796875 234 L 374.796875 288 L 327 288 Z M 327 234 "/>
</clipPath>
<clipPath id="clip120">
  <path d="M 374.382812 281.101562 L 374.789062 281.101562 L 374.789062 282 L 374.382812 282 Z M 374.382812 281.101562 "/>
</clipPath>
<clipPath id="clip121">
  <path d="M 374.382812 281.417969 L 374.789062 281.417969 L 374.789062 282 L 374.382812 282 Z M 374.382812 281.417969 "/>
</clipPath>
<clipPath id="clip122">
  <path d="M 374.382812 352 L 374.789062 352 L 374.789062 375 L 374.382812 375 Z M 374.382812 352 "/>
</clipPath>
<clipPath id="clip123">
  <path d="M 327.582031 281.417969 L 374.789062 281.417969 L 374.789062 352.570312 L 327.582031 352.570312 Z M 327.582031 281.417969 "/>
</clipPath>
<clipPath id="clip124">
  <path d="M 374.382812 281.417969 L 374.789062 281.417969 L 374.789062 282.050781 L 374.382812 282.050781 Z M 374.382812 281.417969 "/>
</clipPath>
<clipPath id="clip125">
  <path d="M 327 328 L 374.796875 328 L 374.796875 375 L 327 375 Z M 327 328 "/>
</clipPath>
<clipPath id="clip126">
  <path d="M 186.546875 328.539062 L 265.285156 328.539062 L 265.285156 375 L 186.546875 375 Z M 186.546875 328.539062 "/>
</clipPath>
<clipPath id="clip127">
  <path d="M 233.664062 328.539062 L 280.78125 328.539062 L 280.78125 375 L 233.664062 375 Z M 233.664062 328.539062 "/>
</clipPath>
<clipPath id="clip128">
  <path d="M 280.464844 328.539062 L 359.203125 328.539062 L 359.203125 375 L 280.464844 375 Z M 280.464844 328.539062 "/>
</clipPath>
<clipPath id="clip129">
  <path d="M 327.582031 328.539062 L 374.699219 328.539062 L 374.699219 375 L 327.582031 375 Z M 327.582031 328.539062 "/>
</clipPath>
<clipPath id="clip130">
  <path d="M 280 187.5 L 281 187.5 L 281 188 L 280 188 Z M 280 187.5 "/>
</clipPath>
<clipPath id="clip131">
  <path d="M 233 187.5 L 281 187.5 L 281 235 L 233 235 Z M 233 187.5 "/>
</clipPath>
<clipPath id="clip132">
  <path d="M 186.546875 187.5 L 281 187.5 L 281 212 L 186.546875 212 Z M 186.546875 187.5 "/>
</clipPath>
<clipPath id="clip133">
  <path d="M 264 187.5 L 281 187.5 L 281 194 L 264 194 Z M 264 187.5 "/>
</clipPath>
<clipPath id="clip134">
  <path d="M 186.546875 187.5 L 234 187.5 L 234 235 L 186.546875 235 Z M 186.546875 187.5 "/>
</clipPath>
<clipPath id="clip135">
  <path d="M 327 187.5 L 374.796875 187.5 L 374.796875 235 L 327 235 Z M 327 187.5 "/>
</clipPath>
<clipPath id="clip136">
  <path d="M 280 187.5 L 374.796875 187.5 L 374.796875 212 L 280 212 Z M 280 187.5 "/>
</clipPath>
<clipPath id="clip137">
  <path d="M 358 187.5 L 374.796875 187.5 L 374.796875 194 L 358 194 Z M 358 187.5 "/>
</clipPath>
<clipPath id="clip138">
  <path d="M 280 187.5 L 328 187.5 L 328 235 L 280 235 Z M 280 187.5 "/>
</clipPath>
<clipPath id="clip139">
  <path d="M 233 187.5 L 328 187.5 L 328 259 L 233 259 Z M 233 187.5 "/>
</clipPath>
<clipPath id="clip140">
  <path d="M 280 187.5 L 328 187.5 L 328 241 L 280 241 Z M 280 187.5 "/>
</clipPath>
</defs>
<g id="surface1">
<path style=" stroke:none;fill-rule:nonzero;fill:rgb(7.839966%,23.529053%,23.529053%);fill-opacity:1;" d="M 46.238281 46.238281 L -0.691406 69.996094 L -0.691406 93.167969 Z M 46.238281 46.238281 "/>
<path style=" stroke:none;fill-rule:nonzero;fill:rgb(100%,100%,100%);fill-opacity:1;" d="M -0.691406 69.996094 L 46.238281 46.238281 L 34.546875 52.15625 L -0.691406 -0.6875 L -0.953125 -0.425781 L -0.953125 69.859375 L -0.691406 69.996094 "/>
<path style=" stroke:none;fill-rule:nonzero;fill:rgb(100%,90.979004%,8.628845%);fill-opacity:1;" d="M 34.546875 52.15625 L 46.238281 46.238281 L -0.691406 -0.6875 Z M 34.546875 52.15625 "/>
<path style=" stroke:none;fill-rule:nonzero;fill:rgb(7.839966%,23.529053%,23.529053%);fill-opacity:1;" d="M 46.238281 140.097656 L 93.164062 93.167969 L 46.238281 116.921875 Z M 46.238281 140.097656 "/>
<path style=" stroke:none;fill-rule:nonzero;fill:rgb(100%,100%,100%);fill-opacity:1;" d="M 46.238281 116.921875 L 93.164062 93.167969 L 81.476562 99.085938 L 46.238281 46.238281 L -0.691406 93.167969 L 46.238281 116.921875 "/>
<path style=" stroke:none;fill-rule:nonzero;fill:rgb(100%,90.979004%,8.628845%);fill-opacity:1;" d="M 93.164062 93.167969 L 46.238281 46.238281 L 81.476562 99.085938 Z M 93.164062 93.167969 "/>
<path style=" stroke:none;fill-rule:nonzero;fill:rgb(56.858826%,83.139038%,81.17981%);fill-opacity:1;" d="M -0.691406 93.167969 L 46.238281 140.097656 L 46.238281 116.921875 Z M -0.691406 93.167969 "/>
<g clip-path="url(#clip1)" clip-rule="nonzero">
<path style=" stroke:none;fill-rule:nonzero;fill:rgb(7.839966%,23.529053%,23.529053%);fill-opacity:1;" d="M -0.691406 163.851562 L -0.691406 187.023438 L 46.238281 140.097656 Z M -0.691406 163.851562 "/>
</g>
<path style=" stroke:none;fill-rule:nonzero;fill:rgb(100%,100%,100%);fill-opacity:1;" d="M 34.546875 146.011719 L -0.691406 93.167969 L -0.953125 93.429688 L -0.953125 163.71875 L -0.691406 163.851562 L 46.238281 140.097656 L 34.546875 146.011719 "/>
<path style=" stroke:none;fill-rule:nonzero;fill:rgb(100%,90.979004%,8.628845%);fill-opacity:1;" d="M 34.546875 146.011719 L 46.238281 140.097656 L -0.691406 93.167969 Z M 34.546875 146.011719 "/>
<g clip-path="url(#clip2)" clip-rule="nonzero">
<path style=" stroke:none;fill-rule:nonzero;fill:rgb(7.839966%,23.529053%,23.529053%);fill-opacity:1;" d="M 187.023438 69.996094 L 187.023438 93.167969 L 187.289062 92.902344 L 187.289062 69.859375 L 187.023438 69.996094 "/>
</g>
<g clip-path="url(#clip3)" clip-rule="nonzero">
<path style=" stroke:none;fill-rule:nonzero;fill:rgb(100%,100%,100%);fill-opacity:1;" d="M 187.023438 69.996094 L 187.289062 69.859375 L 187.289062 -0.292969 L 187.023438 -0.6875 L 140.09375 46.238281 L 187.023438 69.996094 "/>
</g>
<g clip-path="url(#clip4)" clip-rule="nonzero">
<path style=" stroke:none;fill-rule:nonzero;fill:rgb(56.858826%,83.139038%,81.17981%);fill-opacity:1;" d="M 187.023438 93.167969 L 187.023438 69.996094 L 140.09375 46.238281 Z M 187.023438 93.167969 "/>
</g>
<g clip-path="url(#clip5)" clip-rule="nonzero">
<path style=" stroke:none;fill-rule:nonzero;fill:rgb(7.839966%,23.529053%,23.529053%);fill-opacity:1;" d="M 140.09375 140.097656 L 187.023438 93.167969 L 140.09375 116.921875 Z M 140.09375 140.097656 "/>
</g>
<g clip-path="url(#clip6)" clip-rule="nonzero">
<path style=" stroke:none;fill-rule:nonzero;fill:rgb(100%,100%,100%);fill-opacity:1;" d="M 140.09375 46.238281 L 93.164062 93.167969 L 140.09375 116.921875 L 187.023438 93.167969 L 175.335938 99.085938 L 140.09375 46.238281 "/>
</g>
<g clip-path="url(#clip7)" clip-rule="nonzero">
<path style=" stroke:none;fill-rule:nonzero;fill:rgb(100%,90.979004%,8.628845%);fill-opacity:1;" d="M 175.335938 99.085938 L 187.023438 93.167969 L 140.09375 46.238281 Z M 175.335938 99.085938 "/>
</g>
<path style=" stroke:none;fill-rule:nonzero;fill:rgb(56.858826%,83.139038%,81.17981%);fill-opacity:1;" d="M 140.09375 116.921875 L 93.164062 93.167969 L 140.09375 140.097656 Z M 140.09375 116.921875 "/>
<g clip-path="url(#clip8)" clip-rule="nonzero">
<path style=" stroke:none;fill-rule:nonzero;fill:rgb(100%,100%,100%);fill-opacity:1;" d="M 187.289062 93.300781 L 187.289062 92.902344 L 187.023438 93.167969 Z M 187.289062 93.300781 "/>
</g>
<g clip-path="url(#clip9)" clip-rule="nonzero">
<path style=" stroke:none;fill-rule:nonzero;fill:rgb(56.858826%,83.139038%,81.17981%);fill-opacity:1;" d="M 187.023438 93.167969 L 187.289062 93.429688 L 187.289062 93.300781 Z M 187.023438 93.167969 "/>
</g>
<g clip-path="url(#clip10)" clip-rule="nonzero">
<path style=" stroke:none;fill-rule:nonzero;fill:rgb(7.839966%,23.529053%,23.529053%);fill-opacity:1;" d="M 187.023438 163.851562 L 187.023438 187.023438 L 187.289062 186.761719 L 187.289062 163.71875 L 187.023438 163.851562 "/>
</g>
<g clip-path="url(#clip11)" clip-rule="nonzero">
<path style=" stroke:none;fill-rule:nonzero;fill:rgb(100%,100%,100%);fill-opacity:1;" d="M 187.023438 163.851562 L 187.289062 163.71875 L 187.289062 93.5625 L 187.023438 93.167969 L 140.09375 140.097656 L 187.023438 163.851562 "/>
</g>
<g clip-path="url(#clip12)" clip-rule="nonzero">
<path style=" stroke:none;fill-rule:nonzero;fill:rgb(100%,90.979004%,8.628845%);fill-opacity:1;" d="M 187.289062 93.5625 L 187.289062 93.429688 L 187.023438 93.167969 Z M 187.289062 93.5625 "/>
</g>
<g clip-path="url(#clip13)" clip-rule="nonzero">
<path style=" stroke:none;fill-rule:nonzero;fill:rgb(56.858826%,83.139038%,81.17981%);fill-opacity:1;" d="M 187.023438 187.023438 L 187.023438 163.851562 L 140.09375 140.097656 Z M 187.023438 187.023438 "/>
</g>
<g clip-path="url(#clip14)" clip-rule="nonzero">
<path style=" stroke:none;fill-rule:nonzero;fill:rgb(7.839966%,23.529053%,23.529053%);fill-opacity:1;" d="M 93.164062 163.851562 L 93.164062 187.023438 L 140.09375 140.097656 Z M 93.164062 163.851562 "/>
</g>
<path style=" stroke:none;fill-rule:nonzero;fill:rgb(100%,100%,100%);fill-opacity:1;" d="M 93.164062 163.851562 L 140.09375 140.097656 L 128.40625 146.011719 L 93.164062 93.167969 L 46.238281 140.097656 L 93.164062 163.851562 "/>
<path style=" stroke:none;fill-rule:nonzero;fill:rgb(100%,90.979004%,8.628845%);fill-opacity:1;" d="M 140.09375 140.097656 L 93.164062 93.167969 L 128.40625 146.011719 Z M 140.09375 140.097656 "/>
<g clip-path="url(#clip15)" clip-rule="nonzero">
<path style=" stroke:none;fill-rule:nonzero;fill:rgb(56.858826%,83.139038%,81.17981%);fill-opacity:1;" d="M 46.238281 140.097656 L 93.164062 187.023438 L 93.164062 163.851562 Z M 46.238281 140.097656 "/>
</g>
<g clip-path="url(#clip16)" clip-rule="nonzero">
<path style=" stroke:none;fill-rule:nonzero;fill:rgb(7.839966%,23.529053%,23.529053%);fill-opacity:1;" d="M 92.644531 187.289062 L 92.902344 187.289062 L 93.164062 187.023438 Z M 92.644531 187.289062 "/>
<path style=" stroke:none;fill-rule:nonzero;fill:rgb(100%,100%,100%);fill-opacity:1;" d="M 92.644531 187.289062 L 93.164062 187.023438 Z M 92.644531 187.289062 "/>
</g>
<g clip-path="url(#clip17)" clip-rule="nonzero">
<path style=" stroke:none;fill-rule:nonzero;fill:rgb(100%,100%,100%);fill-opacity:1;" d="M 46.238281 140.097656 L -0.691406 187.023438 L -0.167969 187.289062 L 77.707031 187.289062 L 46.238281 140.097656 "/>
</g>
<g clip-path="url(#clip18)" clip-rule="nonzero">
<path style=" stroke:none;fill-rule:nonzero;fill:rgb(100%,90.979004%,8.628845%);fill-opacity:1;" d="M 77.707031 187.289062 L 92.644531 187.289062 L 93.164062 187.023438 L 46.238281 140.097656 L 77.707031 187.289062 "/>
</g>
<g clip-path="url(#clip19)" clip-rule="nonzero">
<path style=" stroke:none;fill-rule:nonzero;fill:rgb(7.839966%,23.529053%,23.529053%);fill-opacity:1;" d="M 186.5 187.289062 L 186.757812 187.289062 L 187.023438 187.023438 Z M 186.5 187.289062 "/>
</g>
<g clip-path="url(#clip20)" clip-rule="nonzero">
<path style=" stroke:none;fill-rule:nonzero;fill:rgb(100%,100%,100%);fill-opacity:1;" d="M 140.09375 140.097656 L 93.164062 187.023438 L 93.6875 187.289062 L 171.5625 187.289062 L 140.09375 140.097656 "/>
</g>
<g clip-path="url(#clip21)" clip-rule="nonzero">
<path style=" stroke:none;fill-rule:nonzero;fill:rgb(100%,100%,100%);fill-opacity:1;" d="M 186.5 187.289062 L 187.023438 187.023438 Z M 186.5 187.289062 "/>
</g>
<g clip-path="url(#clip22)" clip-rule="nonzero">
<path style=" stroke:none;fill-rule:nonzero;fill:rgb(100%,90.979004%,8.628845%);fill-opacity:1;" d="M 171.5625 187.289062 L 186.5 187.289062 L 187.023438 187.023438 L 140.09375 140.097656 L 171.5625 187.289062 "/>
</g>
<g clip-path="url(#clip23)" clip-rule="nonzero">
<path style=" stroke:none;fill-rule:nonzero;fill:rgb(56.858826%,83.139038%,81.17981%);fill-opacity:1;" d="M 93.429688 187.289062 L 93.6875 187.289062 L 93.164062 187.023438 Z M 93.429688 187.289062 "/>
</g>
<g clip-path="url(#clip24)" clip-rule="nonzero">
<path style=" stroke:none;fill-rule:nonzero;fill:rgb(100%,100%,100%);fill-opacity:1;" d="M 93.164062 187.023438 L 92.902344 187.289062 L 93.34375 187.289062 Z M 93.164062 187.023438 "/>
</g>
<g clip-path="url(#clip25)" clip-rule="nonzero">
<path style=" stroke:none;fill-rule:nonzero;fill:rgb(100%,90.979004%,8.628845%);fill-opacity:1;" d="M 93.34375 187.289062 L 93.429688 187.289062 L 93.164062 187.023438 Z M 93.34375 187.289062 "/>
</g>
<path style=" stroke:none;fill-rule:nonzero;fill:rgb(7.839966%,23.529053%,23.529053%);fill-opacity:1;" d="M 46.238281 23.066406 L 46.238281 46.238281 L 93.164062 -0.6875 Z M 46.238281 23.066406 "/>
<path style=" stroke:none;fill-rule:nonzero;fill:rgb(100%,100%,100%);fill-opacity:1;" d="M 46.238281 23.066406 L 93.164062 -0.6875 L 81.476562 5.226562 L 77.355469 -0.953125 L -0.425781 -0.953125 L -0.691406 -0.6875 L 46.238281 23.066406 "/>
<path style=" stroke:none;fill-rule:nonzero;fill:rgb(100%,90.979004%,8.628845%);fill-opacity:1;" d="M 81.476562 5.226562 L 93.164062 -0.6875 L 92.902344 -0.953125 L 77.355469 -0.953125 L 81.476562 5.226562 "/>
<path style=" stroke:none;fill-rule:nonzero;fill:rgb(56.858826%,83.139038%,81.17981%);fill-opacity:1;" d="M -0.691406 -0.6875 L 46.238281 46.238281 L 46.238281 23.066406 Z M -0.691406 -0.6875 "/>
<g clip-path="url(#clip26)" clip-rule="nonzero">
<path style=" stroke:none;fill-rule:nonzero;fill:rgb(7.839966%,23.529053%,23.529053%);fill-opacity:1;" d="M 140.09375 46.238281 L 187.023438 -0.6875 L 140.09375 23.066406 Z M 140.09375 46.238281 "/>
</g>
<g clip-path="url(#clip27)" clip-rule="nonzero">
<path style=" stroke:none;fill-rule:nonzero;fill:rgb(100%,100%,100%);fill-opacity:1;" d="M 187.023438 -0.6875 L 175.335938 5.226562 L 171.210938 -0.953125 L 93.429688 -0.953125 L 93.164062 -0.6875 L 140.09375 23.066406 L 187.023438 -0.6875 "/>
</g>
<g clip-path="url(#clip28)" clip-rule="nonzero">
<path style=" stroke:none;fill-rule:nonzero;fill:rgb(100%,90.979004%,8.628845%);fill-opacity:1;" d="M 175.335938 5.226562 L 187.023438 -0.6875 L 186.757812 -0.953125 L 171.210938 -0.953125 L 175.335938 5.226562 "/>
</g>
<path style=" stroke:none;fill-rule:nonzero;fill:rgb(56.858826%,83.139038%,81.17981%);fill-opacity:1;" d="M 140.09375 23.066406 L 93.164062 -0.6875 L 140.09375 46.238281 Z M 140.09375 23.066406 "/>
<path style=" stroke:none;fill-rule:nonzero;fill:rgb(7.839966%,23.529053%,23.529053%);fill-opacity:1;" d="M 93.164062 93.167969 L 140.09375 46.238281 L 93.164062 69.996094 Z M 93.164062 93.167969 "/>
<path style=" stroke:none;fill-rule:nonzero;fill:rgb(100%,100%,100%);fill-opacity:1;" d="M 93.164062 69.996094 L 140.09375 46.238281 L 128.40625 52.15625 L 93.164062 -0.6875 L 46.238281 46.238281 L 93.164062 69.996094 "/>
<path style=" stroke:none;fill-rule:nonzero;fill:rgb(100%,90.979004%,8.628845%);fill-opacity:1;" d="M 140.09375 46.238281 L 93.164062 -0.6875 L 128.40625 52.15625 Z M 140.09375 46.238281 "/>
<path style=" stroke:none;fill-rule:nonzero;fill:rgb(56.858826%,83.139038%,81.17981%);fill-opacity:1;" d="M 46.238281 46.238281 L 93.164062 93.167969 L 93.164062 69.996094 Z M 46.238281 46.238281 "/>
<path style=" stroke:none;fill-rule:nonzero;fill:rgb(7.839966%,23.529053%,23.529053%);fill-opacity:1;" d="M 46.238281 234.691406 L -0.691406 258.449219 L -0.691406 281.621094 Z M 46.238281 234.691406 "/>
<g clip-path="url(#clip29)" clip-rule="nonzero">
<path style=" stroke:none;fill-rule:nonzero;fill:rgb(100%,100%,100%);fill-opacity:1;" d="M -0.691406 258.449219 L 46.238281 234.691406 L 34.546875 240.609375 L -0.691406 187.765625 L -0.953125 188.03125 L -0.953125 258.316406 L -0.691406 258.449219 "/>
</g>
<g clip-path="url(#clip30)" clip-rule="nonzero">
<path style=" stroke:none;fill-rule:nonzero;fill:rgb(56.858826%,83.139038%,81.17981%);fill-opacity:1;" d="M 34.546875 240.609375 L 46.238281 234.691406 L -0.691406 187.765625 Z M 34.546875 240.609375 "/>
</g>
<path style=" stroke:none;fill-rule:nonzero;fill:rgb(7.839966%,23.529053%,23.529053%);fill-opacity:1;" d="M 46.238281 328.550781 L 93.164062 281.621094 L 46.238281 305.378906 Z M 46.238281 328.550781 "/>
<path style=" stroke:none;fill-rule:nonzero;fill:rgb(100%,100%,100%);fill-opacity:1;" d="M 46.238281 305.378906 L 93.164062 281.621094 L 81.476562 287.539062 L 46.238281 234.691406 L -0.691406 281.621094 L 46.238281 305.378906 "/>
<path style=" stroke:none;fill-rule:nonzero;fill:rgb(56.858826%,83.139038%,81.17981%);fill-opacity:1;" d="M 93.164062 281.621094 L 46.238281 234.691406 L 81.476562 287.539062 Z M 93.164062 281.621094 "/>
<path style=" stroke:none;fill-rule:nonzero;fill:rgb(100%,90.979004%,8.628845%);fill-opacity:1;" d="M -0.691406 281.621094 L 46.238281 328.550781 L 46.238281 305.378906 Z M -0.691406 281.621094 "/>
<path style=" stroke:none;fill-rule:nonzero;fill:rgb(7.839966%,23.529053%,23.529053%);fill-opacity:1;" d="M -0.691406 352.304688 L -0.691406 375.480469 L 46.238281 328.550781 Z M -0.691406 352.304688 "/>
<path style=" stroke:none;fill-rule:nonzero;fill:rgb(100%,100%,100%);fill-opacity:1;" d="M 34.546875 334.46875 L -0.691406 281.621094 L -0.953125 281.886719 L -0.953125 352.171875 L -0.691406 352.304688 L 46.238281 328.550781 L 34.546875 334.46875 "/>
<path style=" stroke:none;fill-rule:nonzero;fill:rgb(56.858826%,83.139038%,81.17981%);fill-opacity:1;" d="M 34.546875 334.46875 L 46.238281 328.550781 L -0.691406 281.621094 Z M 34.546875 334.46875 "/>
<g clip-path="url(#clip31)" clip-rule="nonzero">
<path style=" stroke:none;fill-rule:nonzero;fill:rgb(7.839966%,23.529053%,23.529053%);fill-opacity:1;" d="M 187.023438 258.449219 L 187.023438 281.621094 L 187.289062 281.359375 L 187.289062 258.316406 L 187.023438 258.449219 "/>
</g>
<g clip-path="url(#clip32)" clip-rule="nonzero">
<path style=" stroke:none;fill-rule:nonzero;fill:rgb(100%,100%,100%);fill-opacity:1;" d="M 187.023438 258.449219 L 187.289062 258.316406 L 187.289062 188.160156 L 187.023438 187.765625 L 140.09375 234.691406 L 187.023438 258.449219 "/>
</g>
<g clip-path="url(#clip33)" clip-rule="nonzero">
<path style=" stroke:none;fill-rule:nonzero;fill:rgb(56.858826%,83.139038%,81.17981%);fill-opacity:1;" d="M 187.289062 188.160156 L 187.289062 188.03125 L 187.023438 187.765625 Z M 187.289062 188.160156 "/>
</g>
<g clip-path="url(#clip34)" clip-rule="nonzero">
<path style=" stroke:none;fill-rule:nonzero;fill:rgb(100%,90.979004%,8.628845%);fill-opacity:1;" d="M 187.023438 281.621094 L 187.023438 258.449219 L 140.09375 234.691406 Z M 187.023438 281.621094 "/>
</g>
<g clip-path="url(#clip35)" clip-rule="nonzero">
<path style=" stroke:none;fill-rule:nonzero;fill:rgb(7.839966%,23.529053%,23.529053%);fill-opacity:1;" d="M 140.09375 328.550781 L 187.023438 281.621094 L 140.09375 305.378906 Z M 140.09375 328.550781 "/>
</g>
<g clip-path="url(#clip36)" clip-rule="nonzero">
<path style=" stroke:none;fill-rule:nonzero;fill:rgb(100%,100%,100%);fill-opacity:1;" d="M 140.09375 234.691406 L 93.164062 281.621094 L 140.09375 305.378906 L 187.023438 281.621094 L 175.335938 287.539062 L 140.09375 234.691406 "/>
</g>
<g clip-path="url(#clip37)" clip-rule="nonzero">
<path style=" stroke:none;fill-rule:nonzero;fill:rgb(56.858826%,83.139038%,81.17981%);fill-opacity:1;" d="M 175.335938 287.539062 L 187.023438 281.621094 L 140.09375 234.691406 Z M 175.335938 287.539062 "/>
</g>
<path style=" stroke:none;fill-rule:nonzero;fill:rgb(100%,90.979004%,8.628845%);fill-opacity:1;" d="M 140.09375 305.378906 L 93.164062 281.621094 L 140.09375 328.550781 Z M 140.09375 305.378906 "/>
<g clip-path="url(#clip38)" clip-rule="nonzero">
<path style=" stroke:none;fill-rule:nonzero;fill:rgb(100%,100%,100%);fill-opacity:1;" d="M 187.289062 281.753906 L 187.289062 281.359375 L 187.023438 281.621094 Z M 187.289062 281.753906 "/>
</g>
<g clip-path="url(#clip39)" clip-rule="nonzero">
<path style=" stroke:none;fill-rule:nonzero;fill:rgb(100%,90.979004%,8.628845%);fill-opacity:1;" d="M 187.023438 281.621094 L 187.289062 281.886719 L 187.289062 281.753906 Z M 187.023438 281.621094 "/>
</g>
<g clip-path="url(#clip40)" clip-rule="nonzero">
<path style=" stroke:none;fill-rule:nonzero;fill:rgb(7.839966%,23.529053%,23.529053%);fill-opacity:1;" d="M 187.023438 352.304688 L 187.023438 375.480469 L 187.289062 375.214844 L 187.289062 352.171875 L 187.023438 352.304688 "/>
</g>
<g clip-path="url(#clip41)" clip-rule="nonzero">
<path style=" stroke:none;fill-rule:nonzero;fill:rgb(100%,100%,100%);fill-opacity:1;" d="M 187.023438 352.304688 L 187.289062 352.171875 L 187.289062 282.019531 L 187.023438 281.621094 L 140.09375 328.550781 L 187.023438 352.304688 "/>
</g>
<g clip-path="url(#clip42)" clip-rule="nonzero">
<path style=" stroke:none;fill-rule:nonzero;fill:rgb(56.858826%,83.139038%,81.17981%);fill-opacity:1;" d="M 187.289062 282.019531 L 187.289062 281.886719 L 187.023438 281.621094 Z M 187.289062 282.019531 "/>
</g>
<g clip-path="url(#clip43)" clip-rule="nonzero">
<path style=" stroke:none;fill-rule:nonzero;fill:rgb(100%,90.979004%,8.628845%);fill-opacity:1;" d="M 187.023438 375.480469 L 187.023438 352.304688 L 140.09375 328.550781 Z M 187.023438 375.480469 "/>
</g>
<path style=" stroke:none;fill-rule:nonzero;fill:rgb(7.839966%,23.529053%,23.529053%);fill-opacity:1;" d="M 93.164062 352.304688 L 93.164062 375.480469 L 140.09375 328.550781 Z M 93.164062 352.304688 "/>
<path style=" stroke:none;fill-rule:nonzero;fill:rgb(100%,100%,100%);fill-opacity:1;" d="M 93.164062 352.304688 L 140.09375 328.550781 L 128.40625 334.46875 L 93.164062 281.621094 L 46.238281 328.550781 L 93.164062 352.304688 "/>
<path style=" stroke:none;fill-rule:nonzero;fill:rgb(56.858826%,83.139038%,81.17981%);fill-opacity:1;" d="M 140.09375 328.550781 L 93.164062 281.621094 L 128.40625 334.46875 Z M 140.09375 328.550781 "/>
<path style=" stroke:none;fill-rule:nonzero;fill:rgb(100%,90.979004%,8.628845%);fill-opacity:1;" d="M 46.238281 328.550781 L 93.164062 375.480469 L 93.164062 352.304688 Z M 46.238281 328.550781 "/>
<g clip-path="url(#clip44)" clip-rule="nonzero">
<path style=" stroke:none;fill-rule:nonzero;fill:rgb(100%,100%,100%);fill-opacity:1;" d="M 46.238281 328.550781 L -0.691406 375.480469 L -0.167969 375.742188 L 77.707031 375.742188 L 46.238281 328.550781 "/>
</g>
<g clip-path="url(#clip45)" clip-rule="nonzero">
<path style=" stroke:none;fill-rule:nonzero;fill:rgb(56.858826%,83.139038%,81.17981%);fill-opacity:1;" d="M 77.707031 375.742188 L 92.644531 375.742188 L 93.164062 375.480469 L 46.238281 328.550781 L 77.707031 375.742188 "/>
</g>
<g clip-path="url(#clip46)" clip-rule="nonzero">
<path style=" stroke:none;fill-rule:nonzero;fill:rgb(100%,100%,100%);fill-opacity:1;" d="M 140.09375 328.550781 L 93.164062 375.480469 L 93.6875 375.742188 L 171.5625 375.742188 L 140.09375 328.550781 "/>
</g>
<g clip-path="url(#clip47)" clip-rule="nonzero">
<path style=" stroke:none;fill-rule:nonzero;fill:rgb(56.858826%,83.139038%,81.17981%);fill-opacity:1;" d="M 171.5625 375.742188 L 186.5 375.742188 L 187.023438 375.480469 L 140.09375 328.550781 L 171.5625 375.742188 "/>
</g>
<g clip-path="url(#clip48)" clip-rule="nonzero">
<path style=" stroke:none;fill-rule:nonzero;fill:rgb(7.839966%,23.529053%,23.529053%);fill-opacity:1;" d="M 93.164062 187.5 L 93.164062 187.765625 L 93.429688 187.5 Z M 93.164062 187.5 "/>
</g>
<g clip-path="url(#clip49)" clip-rule="nonzero">
<path style=" stroke:none;fill-rule:nonzero;fill:rgb(100%,90.979004%,8.628845%);fill-opacity:1;" d="M 93.164062 187.5 L 92.902344 187.5 L 93.164062 187.765625 Z M 93.164062 187.5 "/>
</g>
<g clip-path="url(#clip50)" clip-rule="nonzero">
<path style=" stroke:none;fill-rule:nonzero;fill:rgb(7.839966%,23.529053%,23.529053%);fill-opacity:1;" d="M 46.238281 211.519531 L 46.238281 234.691406 L 93.164062 187.765625 Z M 46.238281 211.519531 "/>
</g>
<g clip-path="url(#clip51)" clip-rule="nonzero">
<path style=" stroke:none;fill-rule:nonzero;fill:rgb(100%,100%,100%);fill-opacity:1;" d="M 46.238281 211.519531 L 93.164062 187.765625 L 81.476562 193.683594 L 77.355469 187.5 L -0.425781 187.5 L -0.691406 187.765625 L 46.238281 211.519531 "/>
</g>
<g clip-path="url(#clip52)" clip-rule="nonzero">
<path style=" stroke:none;fill-rule:nonzero;fill:rgb(56.858826%,83.139038%,81.17981%);fill-opacity:1;" d="M 81.476562 193.683594 L 93.164062 187.765625 L 92.902344 187.5 L 77.355469 187.5 L 81.476562 193.683594 "/>
</g>
<g clip-path="url(#clip53)" clip-rule="nonzero">
<path style=" stroke:none;fill-rule:nonzero;fill:rgb(100%,90.979004%,8.628845%);fill-opacity:1;" d="M -0.691406 187.765625 L 46.238281 234.691406 L 46.238281 211.519531 Z M -0.691406 187.765625 "/>
</g>
<g clip-path="url(#clip54)" clip-rule="nonzero">
<path style=" stroke:none;fill-rule:nonzero;fill:rgb(7.839966%,23.529053%,23.529053%);fill-opacity:1;" d="M 140.09375 234.691406 L 187.023438 187.765625 L 140.09375 211.519531 Z M 140.09375 234.691406 "/>
</g>
<g clip-path="url(#clip55)" clip-rule="nonzero">
<path style=" stroke:none;fill-rule:nonzero;fill:rgb(100%,100%,100%);fill-opacity:1;" d="M 187.023438 187.765625 L 175.335938 193.683594 L 171.210938 187.5 L 93.429688 187.5 L 93.164062 187.765625 L 140.09375 211.519531 L 187.023438 187.765625 "/>
</g>
<g clip-path="url(#clip56)" clip-rule="nonzero">
<path style=" stroke:none;fill-rule:nonzero;fill:rgb(56.858826%,83.139038%,81.17981%);fill-opacity:1;" d="M 175.335938 193.683594 L 187.023438 187.765625 L 186.757812 187.5 L 171.210938 187.5 L 175.335938 193.683594 "/>
</g>
<g clip-path="url(#clip57)" clip-rule="nonzero">
<path style=" stroke:none;fill-rule:nonzero;fill:rgb(100%,90.979004%,8.628845%);fill-opacity:1;" d="M 140.09375 211.519531 L 93.164062 187.765625 L 140.09375 234.691406 Z M 140.09375 211.519531 "/>
</g>
<path style=" stroke:none;fill-rule:nonzero;fill:rgb(7.839966%,23.529053%,23.529053%);fill-opacity:1;" d="M 93.164062 281.621094 L 140.09375 234.691406 L 93.164062 258.449219 Z M 93.164062 281.621094 "/>
<g clip-path="url(#clip58)" clip-rule="nonzero">
<path style=" stroke:none;fill-rule:nonzero;fill:rgb(100%,100%,100%);fill-opacity:1;" d="M 93.164062 258.449219 L 140.09375 234.691406 L 128.40625 240.609375 L 93.164062 187.765625 L 46.238281 234.691406 L 93.164062 258.449219 "/>
</g>
<g clip-path="url(#clip59)" clip-rule="nonzero">
<path style=" stroke:none;fill-rule:nonzero;fill:rgb(56.858826%,83.139038%,81.17981%);fill-opacity:1;" d="M 140.09375 234.691406 L 93.164062 187.765625 L 128.40625 240.609375 Z M 140.09375 234.691406 "/>
</g>
<path style=" stroke:none;fill-rule:nonzero;fill:rgb(100%,90.979004%,8.628845%);fill-opacity:1;" d="M 46.238281 234.691406 L 93.164062 281.621094 L 93.164062 258.449219 Z M 46.238281 234.691406 "/>
<g clip-path="url(#clip60)" clip-rule="nonzero">
<path style=" stroke:none;fill-rule:nonzero;fill:rgb(7.839966%,23.529053%,23.529053%);fill-opacity:1;" d="M 233.738281 46.238281 L 186.808594 69.996094 L 186.808594 93.167969 Z M 233.738281 46.238281 "/>
</g>
<g clip-path="url(#clip61)" clip-rule="nonzero">
<path style=" stroke:none;fill-rule:nonzero;fill:rgb(100%,100%,100%);fill-opacity:1;" d="M 186.808594 69.996094 L 233.738281 46.238281 L 222.046875 52.15625 L 186.808594 -0.6875 L 186.546875 -0.425781 L 186.546875 69.859375 L 186.808594 69.996094 "/>
</g>
<g clip-path="url(#clip62)" clip-rule="nonzero">
<path style=" stroke:none;fill-rule:nonzero;fill:rgb(100%,90.979004%,8.628845%);fill-opacity:1;" d="M 222.046875 52.15625 L 233.738281 46.238281 L 186.808594 -0.6875 Z M 222.046875 52.15625 "/>
</g>
<g clip-path="url(#clip63)" clip-rule="nonzero">
<path style=" stroke:none;fill-rule:nonzero;fill:rgb(56.858826%,83.139038%,81.17981%);fill-opacity:1;" d="M 186.808594 69.996094 L 186.546875 69.859375 L 186.546875 92.902344 L 186.808594 93.167969 L 186.808594 69.996094 "/>
</g>
<g clip-path="url(#clip64)" clip-rule="nonzero">
<path style=" stroke:none;fill-rule:nonzero;fill:rgb(7.839966%,23.529053%,23.529053%);fill-opacity:1;" d="M 186.546875 93.300781 L 186.546875 93.429688 L 186.808594 93.167969 Z M 186.546875 93.300781 "/>
<path style=" stroke:none;fill-rule:nonzero;fill:rgb(100%,100%,100%);fill-opacity:1;" d="M 186.546875 93.300781 L 186.808594 93.167969 Z M 186.546875 93.300781 "/>
</g>
<g clip-path="url(#clip65)" clip-rule="nonzero">
<path style=" stroke:none;fill-rule:nonzero;fill:rgb(100%,90.979004%,8.628845%);fill-opacity:1;" d="M 186.546875 92.902344 L 186.546875 93.300781 L 186.808594 93.167969 Z M 186.546875 92.902344 "/>
</g>
<path style=" stroke:none;fill-rule:nonzero;fill:rgb(7.839966%,23.529053%,23.529053%);fill-opacity:1;" d="M 233.738281 140.097656 L 280.664062 93.167969 L 233.738281 116.921875 Z M 233.738281 140.097656 "/>
<g clip-path="url(#clip66)" clip-rule="nonzero">
<path style=" stroke:none;fill-rule:nonzero;fill:rgb(100%,100%,100%);fill-opacity:1;" d="M 233.738281 116.921875 L 280.664062 93.167969 L 268.976562 99.085938 L 233.738281 46.238281 L 186.808594 93.167969 L 233.738281 116.921875 "/>
</g>
<path style=" stroke:none;fill-rule:nonzero;fill:rgb(100%,90.979004%,8.628845%);fill-opacity:1;" d="M 280.664062 93.167969 L 233.738281 46.238281 L 268.976562 99.085938 Z M 280.664062 93.167969 "/>
<g clip-path="url(#clip67)" clip-rule="nonzero">
<path style=" stroke:none;fill-rule:nonzero;fill:rgb(56.858826%,83.139038%,81.17981%);fill-opacity:1;" d="M 186.808594 93.167969 L 233.738281 140.097656 L 233.738281 116.921875 Z M 186.808594 93.167969 "/>
</g>
<g clip-path="url(#clip68)" clip-rule="nonzero">
<path style=" stroke:none;fill-rule:nonzero;fill:rgb(7.839966%,23.529053%,23.529053%);fill-opacity:1;" d="M 186.808594 163.851562 L 186.808594 187.023438 L 233.738281 140.097656 Z M 186.808594 163.851562 "/>
</g>
<g clip-path="url(#clip69)" clip-rule="nonzero">
<path style=" stroke:none;fill-rule:nonzero;fill:rgb(100%,100%,100%);fill-opacity:1;" d="M 222.046875 146.011719 L 186.808594 93.167969 L 186.546875 93.429688 L 186.546875 163.71875 L 186.808594 163.851562 L 233.738281 140.097656 L 222.046875 146.011719 "/>
</g>
<g clip-path="url(#clip70)" clip-rule="nonzero">
<path style=" stroke:none;fill-rule:nonzero;fill:rgb(100%,90.979004%,8.628845%);fill-opacity:1;" d="M 222.046875 146.011719 L 233.738281 140.097656 L 186.808594 93.167969 Z M 222.046875 146.011719 "/>
</g>
<g clip-path="url(#clip71)" clip-rule="nonzero">
<path style=" stroke:none;fill-rule:nonzero;fill:rgb(56.858826%,83.139038%,81.17981%);fill-opacity:1;" d="M 186.808594 163.851562 L 186.546875 163.71875 L 186.546875 186.761719 L 186.808594 187.023438 L 186.808594 163.851562 "/>
</g>
<g clip-path="url(#clip72)" clip-rule="nonzero">
<path style=" stroke:none;fill-rule:nonzero;fill:rgb(7.839966%,23.529053%,23.529053%);fill-opacity:1;" d="M 374.523438 69.996094 L 374.523438 93.167969 L 374.789062 92.902344 L 374.789062 69.859375 L 374.523438 69.996094 "/>
</g>
<g clip-path="url(#clip73)" clip-rule="nonzero">
<path style=" stroke:none;fill-rule:nonzero;fill:rgb(100%,100%,100%);fill-opacity:1;" d="M 374.523438 69.996094 L 374.789062 69.859375 L 374.789062 -0.292969 L 374.523438 -0.6875 L 327.59375 46.238281 L 374.523438 69.996094 "/>
</g>
<g clip-path="url(#clip74)" clip-rule="nonzero">
<path style=" stroke:none;fill-rule:nonzero;fill:rgb(56.858826%,83.139038%,81.17981%);fill-opacity:1;" d="M 374.523438 93.167969 L 374.523438 69.996094 L 327.59375 46.238281 Z M 374.523438 93.167969 "/>
</g>
<g clip-path="url(#clip75)" clip-rule="nonzero">
<path style=" stroke:none;fill-rule:nonzero;fill:rgb(7.839966%,23.529053%,23.529053%);fill-opacity:1;" d="M 327.59375 140.097656 L 374.523438 93.167969 L 327.59375 116.921875 Z M 327.59375 140.097656 "/>
</g>
<g clip-path="url(#clip76)" clip-rule="nonzero">
<path style=" stroke:none;fill-rule:nonzero;fill:rgb(100%,100%,100%);fill-opacity:1;" d="M 327.59375 46.238281 L 280.664062 93.167969 L 327.59375 116.921875 L 374.523438 93.167969 L 362.835938 99.085938 L 327.59375 46.238281 "/>
</g>
<g clip-path="url(#clip77)" clip-rule="nonzero">
<path style=" stroke:none;fill-rule:nonzero;fill:rgb(100%,90.979004%,8.628845%);fill-opacity:1;" d="M 362.835938 99.085938 L 374.523438 93.167969 L 327.59375 46.238281 Z M 362.835938 99.085938 "/>
</g>
<path style=" stroke:none;fill-rule:nonzero;fill:rgb(56.858826%,83.139038%,81.17981%);fill-opacity:1;" d="M 327.59375 116.921875 L 280.664062 93.167969 L 327.59375 140.097656 Z M 327.59375 116.921875 "/>
<g clip-path="url(#clip78)" clip-rule="nonzero">
<path style=" stroke:none;fill-rule:nonzero;fill:rgb(100%,100%,100%);fill-opacity:1;" d="M 374.789062 93.300781 L 374.789062 92.902344 L 374.523438 93.167969 Z M 374.789062 93.300781 "/>
</g>
<g clip-path="url(#clip79)" clip-rule="nonzero">
<path style=" stroke:none;fill-rule:nonzero;fill:rgb(56.858826%,83.139038%,81.17981%);fill-opacity:1;" d="M 374.523438 93.167969 L 374.789062 93.429688 L 374.789062 93.300781 Z M 374.523438 93.167969 "/>
</g>
<g clip-path="url(#clip80)" clip-rule="nonzero">
<path style=" stroke:none;fill-rule:nonzero;fill:rgb(7.839966%,23.529053%,23.529053%);fill-opacity:1;" d="M 374.523438 163.851562 L 374.523438 187.023438 L 374.789062 186.761719 L 374.789062 163.71875 L 374.523438 163.851562 "/>
</g>
<g clip-path="url(#clip81)" clip-rule="nonzero">
<path style=" stroke:none;fill-rule:nonzero;fill:rgb(100%,100%,100%);fill-opacity:1;" d="M 374.523438 163.851562 L 374.789062 163.71875 L 374.789062 93.5625 L 374.523438 93.167969 L 327.59375 140.097656 L 374.523438 163.851562 "/>
</g>
<g clip-path="url(#clip82)" clip-rule="nonzero">
<path style=" stroke:none;fill-rule:nonzero;fill:rgb(100%,90.979004%,8.628845%);fill-opacity:1;" d="M 374.789062 93.5625 L 374.789062 93.429688 L 374.523438 93.167969 Z M 374.789062 93.5625 "/>
</g>
<g clip-path="url(#clip83)" clip-rule="nonzero">
<path style=" stroke:none;fill-rule:nonzero;fill:rgb(56.858826%,83.139038%,81.17981%);fill-opacity:1;" d="M 374.523438 187.023438 L 374.523438 163.851562 L 327.59375 140.097656 Z M 374.523438 187.023438 "/>
</g>
<g clip-path="url(#clip84)" clip-rule="nonzero">
<path style=" stroke:none;fill-rule:nonzero;fill:rgb(7.839966%,23.529053%,23.529053%);fill-opacity:1;" d="M 280.664062 163.851562 L 280.664062 187.023438 L 327.59375 140.097656 Z M 280.664062 163.851562 "/>
</g>
<path style=" stroke:none;fill-rule:nonzero;fill:rgb(100%,100%,100%);fill-opacity:1;" d="M 280.664062 163.851562 L 327.59375 140.097656 L 315.90625 146.011719 L 280.664062 93.167969 L 233.738281 140.097656 L 280.664062 163.851562 "/>
<path style=" stroke:none;fill-rule:nonzero;fill:rgb(100%,90.979004%,8.628845%);fill-opacity:1;" d="M 327.59375 140.097656 L 280.664062 93.167969 L 315.90625 146.011719 Z M 327.59375 140.097656 "/>
<g clip-path="url(#clip85)" clip-rule="nonzero">
<path style=" stroke:none;fill-rule:nonzero;fill:rgb(56.858826%,83.139038%,81.17981%);fill-opacity:1;" d="M 233.738281 140.097656 L 280.664062 187.023438 L 280.664062 163.851562 Z M 233.738281 140.097656 "/>
</g>
<g clip-path="url(#clip86)" clip-rule="nonzero">
<path style=" stroke:none;fill-rule:nonzero;fill:rgb(7.839966%,23.529053%,23.529053%);fill-opacity:1;" d="M 280.144531 187.289062 L 280.402344 187.289062 L 280.664062 187.023438 Z M 280.144531 187.289062 "/>
<path style=" stroke:none;fill-rule:nonzero;fill:rgb(100%,100%,100%);fill-opacity:1;" d="M 280.144531 187.289062 L 280.664062 187.023438 Z M 280.144531 187.289062 "/>
</g>
<g clip-path="url(#clip87)" clip-rule="nonzero">
<path style=" stroke:none;fill-rule:nonzero;fill:rgb(100%,100%,100%);fill-opacity:1;" d="M 233.738281 140.097656 L 186.808594 187.023438 L 187.332031 187.289062 L 265.207031 187.289062 L 233.738281 140.097656 "/>
</g>
<g clip-path="url(#clip88)" clip-rule="nonzero">
<path style=" stroke:none;fill-rule:nonzero;fill:rgb(100%,90.979004%,8.628845%);fill-opacity:1;" d="M 265.207031 187.289062 L 280.144531 187.289062 L 280.664062 187.023438 L 233.738281 140.097656 L 265.207031 187.289062 "/>
</g>
<g clip-path="url(#clip89)" clip-rule="nonzero">
<path style=" stroke:none;fill-rule:nonzero;fill:rgb(56.858826%,83.139038%,81.17981%);fill-opacity:1;" d="M 186.808594 187.023438 L 187.074219 187.289062 L 187.332031 187.289062 Z M 186.808594 187.023438 "/>
</g>
<g clip-path="url(#clip90)" clip-rule="nonzero">
<path style=" stroke:none;fill-rule:nonzero;fill:rgb(7.839966%,23.529053%,23.529053%);fill-opacity:1;" d="M 374 187.289062 L 374.257812 187.289062 L 374.523438 187.023438 Z M 374 187.289062 "/>
</g>
<g clip-path="url(#clip91)" clip-rule="nonzero">
<path style=" stroke:none;fill-rule:nonzero;fill:rgb(100%,100%,100%);fill-opacity:1;" d="M 327.59375 140.097656 L 280.664062 187.023438 L 281.1875 187.289062 L 359.0625 187.289062 L 327.59375 140.097656 "/>
</g>
<g clip-path="url(#clip92)" clip-rule="nonzero">
<path style=" stroke:none;fill-rule:nonzero;fill:rgb(100%,100%,100%);fill-opacity:1;" d="M 374 187.289062 L 374.523438 187.023438 Z M 374 187.289062 "/>
</g>
<g clip-path="url(#clip93)" clip-rule="nonzero">
<path style=" stroke:none;fill-rule:nonzero;fill:rgb(100%,90.979004%,8.628845%);fill-opacity:1;" d="M 359.0625 187.289062 L 374 187.289062 L 374.523438 187.023438 L 327.59375 140.097656 L 359.0625 187.289062 "/>
</g>
<g clip-path="url(#clip94)" clip-rule="nonzero">
<path style=" stroke:none;fill-rule:nonzero;fill:rgb(56.858826%,83.139038%,81.17981%);fill-opacity:1;" d="M 280.929688 187.289062 L 281.1875 187.289062 L 280.664062 187.023438 Z M 280.929688 187.289062 "/>
</g>
<g clip-path="url(#clip95)" clip-rule="nonzero">
<path style=" stroke:none;fill-rule:nonzero;fill:rgb(100%,100%,100%);fill-opacity:1;" d="M 280.664062 187.023438 L 280.402344 187.289062 L 280.84375 187.289062 Z M 280.664062 187.023438 "/>
</g>
<g clip-path="url(#clip96)" clip-rule="nonzero">
<path style=" stroke:none;fill-rule:nonzero;fill:rgb(100%,90.979004%,8.628845%);fill-opacity:1;" d="M 280.84375 187.289062 L 280.929688 187.289062 L 280.664062 187.023438 Z M 280.84375 187.289062 "/>
</g>
<path style=" stroke:none;fill-rule:nonzero;fill:rgb(7.839966%,23.529053%,23.529053%);fill-opacity:1;" d="M 233.738281 23.066406 L 233.738281 46.238281 L 280.664062 -0.6875 Z M 233.738281 23.066406 "/>
<g clip-path="url(#clip97)" clip-rule="nonzero">
<path style=" stroke:none;fill-rule:nonzero;fill:rgb(100%,100%,100%);fill-opacity:1;" d="M 233.738281 23.066406 L 280.664062 -0.6875 L 268.976562 5.226562 L 264.855469 -0.953125 L 187.074219 -0.953125 L 186.808594 -0.6875 L 233.738281 23.066406 "/>
</g>
<path style=" stroke:none;fill-rule:nonzero;fill:rgb(100%,90.979004%,8.628845%);fill-opacity:1;" d="M 268.976562 5.226562 L 280.664062 -0.6875 L 280.402344 -0.953125 L 264.855469 -0.953125 L 268.976562 5.226562 "/>
<g clip-path="url(#clip98)" clip-rule="nonzero">
<path style=" stroke:none;fill-rule:nonzero;fill:rgb(56.858826%,83.139038%,81.17981%);fill-opacity:1;" d="M 186.808594 -0.6875 L 233.738281 46.238281 L 233.738281 23.066406 Z M 186.808594 -0.6875 "/>
</g>
<g clip-path="url(#clip99)" clip-rule="nonzero">
<path style=" stroke:none;fill-rule:nonzero;fill:rgb(7.839966%,23.529053%,23.529053%);fill-opacity:1;" d="M 327.59375 46.238281 L 374.523438 -0.6875 L 327.59375 23.066406 Z M 327.59375 46.238281 "/>
</g>
<g clip-path="url(#clip100)" clip-rule="nonzero">
<path style=" stroke:none;fill-rule:nonzero;fill:rgb(100%,100%,100%);fill-opacity:1;" d="M 374.523438 -0.6875 L 362.835938 5.226562 L 358.710938 -0.953125 L 280.929688 -0.953125 L 280.664062 -0.6875 L 327.59375 23.066406 L 374.523438 -0.6875 "/>
</g>
<g clip-path="url(#clip101)" clip-rule="nonzero">
<path style=" stroke:none;fill-rule:nonzero;fill:rgb(100%,90.979004%,8.628845%);fill-opacity:1;" d="M 362.835938 5.226562 L 374.523438 -0.6875 L 374.257812 -0.953125 L 358.710938 -0.953125 L 362.835938 5.226562 "/>
</g>
<path style=" stroke:none;fill-rule:nonzero;fill:rgb(56.858826%,83.139038%,81.17981%);fill-opacity:1;" d="M 327.59375 23.066406 L 280.664062 -0.6875 L 327.59375 46.238281 Z M 327.59375 23.066406 "/>
<path style=" stroke:none;fill-rule:nonzero;fill:rgb(7.839966%,23.529053%,23.529053%);fill-opacity:1;" d="M 280.664062 93.167969 L 327.59375 46.238281 L 280.664062 69.996094 Z M 280.664062 93.167969 "/>
<path style=" stroke:none;fill-rule:nonzero;fill:rgb(100%,100%,100%);fill-opacity:1;" d="M 280.664062 69.996094 L 327.59375 46.238281 L 315.90625 52.15625 L 280.664062 -0.6875 L 233.738281 46.238281 L 280.664062 69.996094 "/>
<path style=" stroke:none;fill-rule:nonzero;fill:rgb(100%,90.979004%,8.628845%);fill-opacity:1;" d="M 327.59375 46.238281 L 280.664062 -0.6875 L 315.90625 52.15625 Z M 327.59375 46.238281 "/>
<path style=" stroke:none;fill-rule:nonzero;fill:rgb(56.858826%,83.139038%,81.17981%);fill-opacity:1;" d="M 233.738281 46.238281 L 280.664062 93.167969 L 280.664062 69.996094 Z M 233.738281 46.238281 "/>
<g clip-path="url(#clip102)" clip-rule="nonzero">
<path style=" stroke:none;fill-rule:nonzero;fill:rgb(7.839966%,23.529053%,23.529053%);fill-opacity:1;" d="M 233.738281 234.691406 L 186.808594 258.449219 L 186.808594 281.621094 Z M 233.738281 234.691406 "/>
</g>
<g clip-path="url(#clip103)" clip-rule="nonzero">
<path style=" stroke:none;fill-rule:nonzero;fill:rgb(100%,100%,100%);fill-opacity:1;" d="M 186.808594 258.449219 L 233.738281 234.691406 L 222.046875 240.609375 L 186.808594 187.765625 L 186.546875 188.03125 L 186.546875 258.316406 L 186.808594 258.449219 "/>
</g>
<g clip-path="url(#clip104)" clip-rule="nonzero">
<path style=" stroke:none;fill-rule:nonzero;fill:rgb(56.858826%,83.139038%,81.17981%);fill-opacity:1;" d="M 222.046875 240.609375 L 233.738281 234.691406 L 186.808594 187.765625 Z M 222.046875 240.609375 "/>
</g>
<g clip-path="url(#clip105)" clip-rule="nonzero">
<path style=" stroke:none;fill-rule:nonzero;fill:rgb(100%,90.979004%,8.628845%);fill-opacity:1;" d="M 186.808594 258.449219 L 186.546875 258.316406 L 186.546875 281.359375 L 186.808594 281.621094 L 186.808594 258.449219 "/>
</g>
<g clip-path="url(#clip106)" clip-rule="nonzero">
<path style=" stroke:none;fill-rule:nonzero;fill:rgb(7.839966%,23.529053%,23.529053%);fill-opacity:1;" d="M 186.546875 281.753906 L 186.546875 281.886719 L 186.808594 281.621094 Z M 186.546875 281.753906 "/>
<path style=" stroke:none;fill-rule:nonzero;fill:rgb(100%,100%,100%);fill-opacity:1;" d="M 186.546875 281.753906 L 186.808594 281.621094 Z M 186.546875 281.753906 "/>
<path style=" stroke:none;fill-rule:nonzero;fill:rgb(56.858826%,83.139038%,81.17981%);fill-opacity:1;" d="M 186.546875 281.359375 L 186.546875 281.753906 L 186.808594 281.621094 Z M 186.546875 281.359375 "/>
</g>
<path style=" stroke:none;fill-rule:nonzero;fill:rgb(7.839966%,23.529053%,23.529053%);fill-opacity:1;" d="M 233.738281 328.550781 L 280.664062 281.621094 L 233.738281 305.378906 Z M 233.738281 328.550781 "/>
<g clip-path="url(#clip107)" clip-rule="nonzero">
<path style=" stroke:none;fill-rule:nonzero;fill:rgb(100%,100%,100%);fill-opacity:1;" d="M 233.738281 305.378906 L 280.664062 281.621094 L 268.976562 287.539062 L 233.738281 234.691406 L 186.808594 281.621094 L 233.738281 305.378906 "/>
</g>
<path style=" stroke:none;fill-rule:nonzero;fill:rgb(56.858826%,83.139038%,81.17981%);fill-opacity:1;" d="M 280.664062 281.621094 L 233.738281 234.691406 L 268.976562 287.539062 Z M 280.664062 281.621094 "/>
<g clip-path="url(#clip108)" clip-rule="nonzero">
<path style=" stroke:none;fill-rule:nonzero;fill:rgb(100%,90.979004%,8.628845%);fill-opacity:1;" d="M 186.808594 281.621094 L 233.738281 328.550781 L 233.738281 305.378906 Z M 186.808594 281.621094 "/>
</g>
<g clip-path="url(#clip109)" clip-rule="nonzero">
<path style=" stroke:none;fill-rule:nonzero;fill:rgb(7.839966%,23.529053%,23.529053%);fill-opacity:1;" d="M 186.808594 352.304688 L 186.808594 375.480469 L 233.738281 328.550781 Z M 186.808594 352.304688 "/>
</g>
<g clip-path="url(#clip110)" clip-rule="nonzero">
<path style=" stroke:none;fill-rule:nonzero;fill:rgb(100%,100%,100%);fill-opacity:1;" d="M 222.046875 334.46875 L 186.808594 281.621094 L 186.546875 281.886719 L 186.546875 352.171875 L 186.808594 352.304688 L 233.738281 328.550781 L 222.046875 334.46875 "/>
</g>
<g clip-path="url(#clip111)" clip-rule="nonzero">
<path style=" stroke:none;fill-rule:nonzero;fill:rgb(56.858826%,83.139038%,81.17981%);fill-opacity:1;" d="M 222.046875 334.46875 L 233.738281 328.550781 L 186.808594 281.621094 Z M 222.046875 334.46875 "/>
</g>
<g clip-path="url(#clip112)" clip-rule="nonzero">
<path style=" stroke:none;fill-rule:nonzero;fill:rgb(100%,90.979004%,8.628845%);fill-opacity:1;" d="M 186.808594 352.304688 L 186.546875 352.171875 L 186.546875 375.214844 L 186.808594 375.480469 L 186.808594 352.304688 "/>
</g>
<g clip-path="url(#clip113)" clip-rule="nonzero">
<path style=" stroke:none;fill-rule:nonzero;fill:rgb(7.839966%,23.529053%,23.529053%);fill-opacity:1;" d="M 374.523438 258.449219 L 374.523438 281.621094 L 374.789062 281.359375 L 374.789062 258.316406 L 374.523438 258.449219 "/>
</g>
<g clip-path="url(#clip114)" clip-rule="nonzero">
<path style=" stroke:none;fill-rule:nonzero;fill:rgb(100%,100%,100%);fill-opacity:1;" d="M 374.523438 258.449219 L 374.789062 258.316406 L 374.789062 188.160156 L 374.523438 187.765625 L 327.59375 234.691406 L 374.523438 258.449219 "/>
</g>
<g clip-path="url(#clip115)" clip-rule="nonzero">
<path style=" stroke:none;fill-rule:nonzero;fill:rgb(56.858826%,83.139038%,81.17981%);fill-opacity:1;" d="M 374.789062 188.160156 L 374.789062 188.03125 L 374.523438 187.765625 Z M 374.789062 188.160156 "/>
</g>
<g clip-path="url(#clip116)" clip-rule="nonzero">
<path style=" stroke:none;fill-rule:nonzero;fill:rgb(100%,90.979004%,8.628845%);fill-opacity:1;" d="M 374.523438 281.621094 L 374.523438 258.449219 L 327.59375 234.691406 Z M 374.523438 281.621094 "/>
</g>
<g clip-path="url(#clip117)" clip-rule="nonzero">
<path style=" stroke:none;fill-rule:nonzero;fill:rgb(7.839966%,23.529053%,23.529053%);fill-opacity:1;" d="M 327.59375 328.550781 L 374.523438 281.621094 L 327.59375 305.378906 Z M 327.59375 328.550781 "/>
</g>
<g clip-path="url(#clip118)" clip-rule="nonzero">
<path style=" stroke:none;fill-rule:nonzero;fill:rgb(100%,100%,100%);fill-opacity:1;" d="M 327.59375 234.691406 L 280.664062 281.621094 L 327.59375 305.378906 L 374.523438 281.621094 L 362.835938 287.539062 L 327.59375 234.691406 "/>
</g>
<g clip-path="url(#clip119)" clip-rule="nonzero">
<path style=" stroke:none;fill-rule:nonzero;fill:rgb(56.858826%,83.139038%,81.17981%);fill-opacity:1;" d="M 362.835938 287.539062 L 374.523438 281.621094 L 327.59375 234.691406 Z M 362.835938 287.539062 "/>
</g>
<path style=" stroke:none;fill-rule:nonzero;fill:rgb(100%,90.979004%,8.628845%);fill-opacity:1;" d="M 327.59375 305.378906 L 280.664062 281.621094 L 327.59375 328.550781 Z M 327.59375 305.378906 "/>
<g clip-path="url(#clip120)" clip-rule="nonzero">
<path style=" stroke:none;fill-rule:nonzero;fill:rgb(100%,100%,100%);fill-opacity:1;" d="M 374.789062 281.753906 L 374.789062 281.359375 L 374.523438 281.621094 Z M 374.789062 281.753906 "/>
</g>
<g clip-path="url(#clip121)" clip-rule="nonzero">
<path style=" stroke:none;fill-rule:nonzero;fill:rgb(100%,90.979004%,8.628845%);fill-opacity:1;" d="M 374.523438 281.621094 L 374.789062 281.886719 L 374.789062 281.753906 Z M 374.523438 281.621094 "/>
</g>
<g clip-path="url(#clip122)" clip-rule="nonzero">
<path style=" stroke:none;fill-rule:nonzero;fill:rgb(7.839966%,23.529053%,23.529053%);fill-opacity:1;" d="M 374.523438 352.304688 L 374.523438 375.480469 L 374.789062 375.214844 L 374.789062 352.171875 L 374.523438 352.304688 "/>
</g>
<g clip-path="url(#clip123)" clip-rule="nonzero">
<path style=" stroke:none;fill-rule:nonzero;fill:rgb(100%,100%,100%);fill-opacity:1;" d="M 374.523438 352.304688 L 374.789062 352.171875 L 374.789062 282.019531 L 374.523438 281.621094 L 327.59375 328.550781 L 374.523438 352.304688 "/>
</g>
<g clip-path="url(#clip124)" clip-rule="nonzero">
<path style=" stroke:none;fill-rule:nonzero;fill:rgb(56.858826%,83.139038%,81.17981%);fill-opacity:1;" d="M 374.789062 282.019531 L 374.789062 281.886719 L 374.523438 281.621094 Z M 374.789062 282.019531 "/>
</g>
<g clip-path="url(#clip125)" clip-rule="nonzero">
<path style=" stroke:none;fill-rule:nonzero;fill:rgb(100%,90.979004%,8.628845%);fill-opacity:1;" d="M 374.523438 375.480469 L 374.523438 352.304688 L 327.59375 328.550781 Z M 374.523438 375.480469 "/>
</g>
<path style=" stroke:none;fill-rule:nonzero;fill:rgb(7.839966%,23.529053%,23.529053%);fill-opacity:1;" d="M 280.664062 352.304688 L 280.664062 375.480469 L 327.59375 328.550781 Z M 280.664062 352.304688 "/>
<path style=" stroke:none;fill-rule:nonzero;fill:rgb(100%,100%,100%);fill-opacity:1;" d="M 280.664062 352.304688 L 327.59375 328.550781 L 315.90625 334.46875 L 280.664062 281.621094 L 233.738281 328.550781 L 280.664062 352.304688 "/>
<path style=" stroke:none;fill-rule:nonzero;fill:rgb(56.858826%,83.139038%,81.17981%);fill-opacity:1;" d="M 327.59375 328.550781 L 280.664062 281.621094 L 315.90625 334.46875 Z M 327.59375 328.550781 "/>
<path style=" stroke:none;fill-rule:nonzero;fill:rgb(100%,90.979004%,8.628845%);fill-opacity:1;" d="M 233.738281 328.550781 L 280.664062 375.480469 L 280.664062 352.304688 Z M 233.738281 328.550781 "/>
<g clip-path="url(#clip126)" clip-rule="nonzero">
<path style=" stroke:none;fill-rule:nonzero;fill:rgb(100%,100%,100%);fill-opacity:1;" d="M 233.738281 328.550781 L 186.808594 375.480469 L 187.332031 375.742188 L 265.207031 375.742188 L 233.738281 328.550781 "/>
</g>
<g clip-path="url(#clip127)" clip-rule="nonzero">
<path style=" stroke:none;fill-rule:nonzero;fill:rgb(56.858826%,83.139038%,81.17981%);fill-opacity:1;" d="M 265.207031 375.742188 L 280.144531 375.742188 L 280.664062 375.480469 L 233.738281 328.550781 L 265.207031 375.742188 "/>
</g>
<g clip-path="url(#clip128)" clip-rule="nonzero">
<path style=" stroke:none;fill-rule:nonzero;fill:rgb(100%,100%,100%);fill-opacity:1;" d="M 327.59375 328.550781 L 280.664062 375.480469 L 281.1875 375.742188 L 359.0625 375.742188 L 327.59375 328.550781 "/>
</g>
<g clip-path="url(#clip129)" clip-rule="nonzero">
<path style=" stroke:none;fill-rule:nonzero;fill:rgb(56.858826%,83.139038%,81.17981%);fill-opacity:1;" d="M 359.0625 375.742188 L 374 375.742188 L 374.523438 375.480469 L 327.59375 328.550781 L 359.0625 375.742188 "/>
</g>
<g clip-path="url(#clip130)" clip-rule="nonzero">
<path style=" stroke:none;fill-rule:nonzero;fill:rgb(7.839966%,23.529053%,23.529053%);fill-opacity:1;" d="M 280.664062 187.5 L 280.664062 187.765625 L 280.929688 187.5 Z M 280.664062 187.5 "/>
<path style=" stroke:none;fill-rule:nonzero;fill:rgb(100%,90.979004%,8.628845%);fill-opacity:1;" d="M 280.664062 187.5 L 280.402344 187.5 L 280.664062 187.765625 Z M 280.664062 187.5 "/>
</g>
<g clip-path="url(#clip131)" clip-rule="nonzero">
<path style=" stroke:none;fill-rule:nonzero;fill:rgb(7.839966%,23.529053%,23.529053%);fill-opacity:1;" d="M 233.738281 211.519531 L 233.738281 234.691406 L 280.664062 187.765625 Z M 233.738281 211.519531 "/>
</g>
<g clip-path="url(#clip132)" clip-rule="nonzero">
<path style=" stroke:none;fill-rule:nonzero;fill:rgb(100%,100%,100%);fill-opacity:1;" d="M 233.738281 211.519531 L 280.664062 187.765625 L 268.976562 193.683594 L 264.855469 187.5 L 187.074219 187.5 L 186.808594 187.765625 L 233.738281 211.519531 "/>
</g>
<g clip-path="url(#clip133)" clip-rule="nonzero">
<path style=" stroke:none;fill-rule:nonzero;fill:rgb(56.858826%,83.139038%,81.17981%);fill-opacity:1;" d="M 268.976562 193.683594 L 280.664062 187.765625 L 280.402344 187.5 L 264.855469 187.5 L 268.976562 193.683594 "/>
</g>
<g clip-path="url(#clip134)" clip-rule="nonzero">
<path style=" stroke:none;fill-rule:nonzero;fill:rgb(100%,90.979004%,8.628845%);fill-opacity:1;" d="M 186.808594 187.765625 L 233.738281 234.691406 L 233.738281 211.519531 Z M 186.808594 187.765625 "/>
</g>
<g clip-path="url(#clip135)" clip-rule="nonzero">
<path style=" stroke:none;fill-rule:nonzero;fill:rgb(7.839966%,23.529053%,23.529053%);fill-opacity:1;" d="M 327.59375 234.691406 L 374.523438 187.765625 L 327.59375 211.519531 Z M 327.59375 234.691406 "/>
</g>
<g clip-path="url(#clip136)" clip-rule="nonzero">
<path style=" stroke:none;fill-rule:nonzero;fill:rgb(100%,100%,100%);fill-opacity:1;" d="M 374.523438 187.765625 L 362.835938 193.683594 L 358.710938 187.5 L 280.929688 187.5 L 280.664062 187.765625 L 327.59375 211.519531 L 374.523438 187.765625 "/>
</g>
<g clip-path="url(#clip137)" clip-rule="nonzero">
<path style=" stroke:none;fill-rule:nonzero;fill:rgb(56.858826%,83.139038%,81.17981%);fill-opacity:1;" d="M 362.835938 193.683594 L 374.523438 187.765625 L 374.257812 187.5 L 358.710938 187.5 L 362.835938 193.683594 "/>
</g>
<g clip-path="url(#clip138)" clip-rule="nonzero">
<path style=" stroke:none;fill-rule:nonzero;fill:rgb(100%,90.979004%,8.628845%);fill-opacity:1;" d="M 327.59375 211.519531 L 280.664062 187.765625 L 327.59375 234.691406 Z M 327.59375 211.519531 "/>
</g>
<path style=" stroke:none;fill-rule:nonzero;fill:rgb(7.839966%,23.529053%,23.529053%);fill-opacity:1;" d="M 280.664062 281.621094 L 327.59375 234.691406 L 280.664062 258.449219 Z M 280.664062 281.621094 "/>
<g clip-path="url(#clip139)" clip-rule="nonzero">
<path style=" stroke:none;fill-rule:nonzero;fill:rgb(100%,100%,100%);fill-opacity:1;" d="M 280.664062 258.449219 L 327.59375 234.691406 L 315.90625 240.609375 L 280.664062 187.765625 L 233.738281 234.691406 L 280.664062 258.449219 "/>
</g>
<g clip-path="url(#clip140)" clip-rule="nonzero">
<path style=" stroke:none;fill-rule:nonzero;fill:rgb(56.858826%,83.139038%,81.17981%);fill-opacity:1;" d="M 327.59375 234.691406 L 280.664062 187.765625 L 315.90625 240.609375 Z M 327.59375 234.691406 "/>
</g>
<path style=" stroke:none;fill-rule:nonzero;fill:rgb(100%,90.979004%,8.628845%);fill-opacity:1;" d="M 233.738281 234.691406 L 280.664062 281.621094 L 280.664062 258.449219 Z M 233.738281 234.691406 "/>
</g>
</svg>
